{
.appVersion = "895";
DisplayStrings = (
"qQwWeErRtTyYuU\012aAsSdDfFgGhHjJ\0121!2@3#4$5%6^7&`~\012\012zZxXcCvVbBnNmM,<\012\012iIoOpP[{\012"
);
copyright = "SIL OPEN FONT LICENSE Version 1.1";
date = "2017-02-18 05:44:20 +0000";
designer = "Trevor Bullock";
familyName = "KA New Stathis Martyria";
fontMaster = (
{
ascender = 800;
capHeight = 700;
descender = -200;
id = "6AE76F26-A731-4FB1-ABE3-4EB47684FF25";
xHeight = 500;
}
);
glyphs = (
{
glyphname = O;
lastChange = "2019-03-05 05:48:29 +0000";
layers = (
{
layerId = "6AE76F26-A731-4FB1-ABE3-4EB47684FF25";
paths = (
{
closed = 1;
nodes = (
"488 150 OFFCURVE",
"478 151 OFFCURVE",
"477 153 CURVE",
"473 155 OFFCURVE",
"475 163 OFFCURVE",
"479 167 CURVE",
"482 168 OFFCURVE",
"484 173 OFFCURVE",
"486 179 CURVE",
"488 199 OFFCURVE",
"469 224 OFFCURVE",
"427 253 CURVE",
"404 269 OFFCURVE",
"403 274 OFFCURVE",
"421 274 CURVE",
"446 274 OFFCURVE",
"479 258 OFFCURVE",
"516 232 CURVE",
"545 212 OFFCURVE",
"559 173 OFFCURVE",
"546 153 CURVE",
"542 148 OFFCURVE",
"541 146 OFFCURVE",
"529 148 CURVE",
"522 148 OFFCURVE",
"507 148 OFFCURVE",
"498 149 CURVE"
);
},
{
closed = 1;
nodes = (
"374 167 OFFCURVE",
"367 169 OFFCURVE",
"363 173 CURVE",
"361 177 OFFCURVE",
"361 179 OFFCURVE",
"367 188 CURVE",
"375 201 OFFCURVE",
"374 205 OFFCURVE",
"361 219 CURVE",
"349 232 OFFCURVE",
"337 240 OFFCURVE",
"313 253 CURVE",
"303 259 OFFCURVE",
"294 264 OFFCURVE",
"294 265 CURVE",
"294 267 OFFCURVE",
"297 270 OFFCURVE",
"300 272 CURVE",
"305 275 OFFCURVE",
"308 275 OFFCURVE",
"334 267 CURVE",
"368 258 OFFCURVE",
"402 243 OFFCURVE",
"417 230 CURVE",
"431 217 OFFCURVE",
"438 202 OFFCURVE",
"438 185 CURVE",
"438 166 OFFCURVE",
"434 162 OFFCURVE",
"413 162 CURVE",
"404 162 OFFCURVE",
"394 163 OFFCURVE",
"388 165 CURVE"
);
},
{
closed = 1;
nodes = (
"608 -52 OFFCURVE",
"598 -47 OFFCURVE",
"592 -43 CURVE",
"575 -34 OFFCURVE",
"575 -28 OFFCURVE",
"592 -10 CURVE",
"605 5 OFFCURVE",
"615 19 OFFCURVE",
"615 22 CURVE",
"615 30 OFFCURVE",
"547 15 OFFCURVE",
"431 -19 CURVE",
"323 -51 OFFCURVE",
"327 -50 OFFCURVE",
"280 -52 CURVE",
"229 -54 OFFCURVE",
"210 -50 OFFCURVE",
"188 -33 CURVE",
"170 -18 OFFCURVE",
"164 -10 OFFCURVE",
"161 7 CURVE",
"158 22 OFFCURVE",
"158 25 OFFCURVE",
"161 36 CURVE",
"169 56 OFFCURVE",
"175 67 OFFCURVE",
"190 81 CURVE",
"205 96 OFFCURVE",
"225 104 OFFCURVE",
"250 108 CURVE",
"264 110 OFFCURVE",
"267 110 OFFCURVE",
"275 105 CURVE",
"281 103 OFFCURVE",
"288 98 OFFCURVE",
"291 93 CURVE",
"297 81 OFFCURVE",
"294 76 OFFCURVE",
"273 44 CURVE",
"247 10 OFFCURVE",
"248 7 OFFCURVE",
"286 7 CURVE",
"310 7 OFFCURVE",
"317 7 OFFCURVE",
"371 19 CURVE",
"401 29 OFFCURVE",
"449 41 OFFCURVE",
"475 48 CURVE",
"530 64 OFFCURVE",
"567 73 OFFCURVE",
"608 74 CURVE",
"634 75 OFFCURVE",
"639 75 OFFCURVE",
"651 70 CURVE",
"672 64 OFFCURVE",
"695 45 OFFCURVE",
"700 33 CURVE",
"706 19 OFFCURVE",
"702 -4 OFFCURVE",
"695 -16 CURVE",
"676 -45 OFFCURVE",
"639 -62 OFFCURVE",
"615 -54 CURVE"
);
}
);
width = 863;
}
);
unicode = 004F;
},
{
glyphname = P;
lastChange = "2019-03-05 05:48:29 +0000";
layers = (
{
components = (
{
name = y;
transform = "{1, 0, 0, 1.1, 50, 410}";
}
);
layerId = "6AE76F26-A731-4FB1-ABE3-4EB47684FF25";
paths = (
{
closed = 1;
nodes = (
"981 229 OFFCURVE",
"936 232 OFFCURVE",
"893 235 CURVE SMOOTH",
"849 238 OFFCURVE",
"742 239 OFFCURVE",
"702 236 CURVE SMOOTH",
"673 234 OFFCURVE",
"527 231 OFFCURVE",
"440 231 CURVE SMOOTH",
"391 231 OFFCURVE",
"369 232 OFFCURVE",
"338 234 CURVE SMOOTH",
"264 240 OFFCURVE",
"226 246 OFFCURVE",
"218 251 CURVE",
"216 252 OFFCURVE",
"211 255 OFFCURVE",
"208 256 CURVE",
"201 259 OFFCURVE",
"183 271 OFFCURVE",
"169 281 CURVE SMOOTH",
"161 287 OFFCURVE",
"159 289 OFFCURVE",
"159 293 CURVE SMOOTH",
"159 295 OFFCURVE",
"160 298 OFFCURVE",
"162 300 CURVE SMOOTH",
"165 303 OFFCURVE",
"166 302 OFFCURVE",
"186 299 CURVE",
"234 290 OFFCURVE",
"235 290 OFFCURVE",
"348 289 CURVE SMOOTH",
"406 288 OFFCURVE",
"485 289 OFFCURVE",
"524 290 CURVE SMOOTH",
"639 293 OFFCURVE",
"814 294 OFFCURVE",
"836 292 CURVE SMOOTH",
"893 286 OFFCURVE",
"973 261 OFFCURVE",
"1000 239 CURVE SMOOTH",
"1006 234 OFFCURVE",
"1007 232 OFFCURVE",
"1004 228 CURVE",
"1003 226 OFFCURVE",
"1001 226 OFFCURVE",
"994 227 CURVE SMOOTH"
);
},
{
closed = 1;
nodes = (
"839 95 OFFCURVE",
"835 95 OFFCURVE",
"822 98 CURVE",
"813 98 OFFCURVE",
"808 100 OFFCURVE",
"802 103 CURVE SMOOTH",
"788 110 OFFCURVE",
"789 113 OFFCURVE",
"776 129 CURVE",
"770 138 OFFCURVE",
"771 134 OFFCURVE",
"764 154 CURVE",
"763 158 OFFCURVE",
"761 162 OFFCURVE",
"761 162 CURVE",
"761 166 OFFCURVE",
"755 177 OFFCURVE",
"749 183 CURVE SMOOTH",
"742 190 OFFCURVE",
"740 195 OFFCURVE",
"742 201 CURVE SMOOTH",
"744 207 OFFCURVE",
"749 210 OFFCURVE",
"758 210 CURVE SMOOTH",
"779 210 OFFCURVE",
"809 207 OFFCURVE",
"813 207 CURVE",
"818 206 OFFCURVE",
"828 198 OFFCURVE",
"834 190 CURVE",
"835 188 OFFCURVE",
"836 187 OFFCURVE",
"837 184 CURVE",
"839 182 OFFCURVE",
"841 177 OFFCURVE",
"842 174 CURVE",
"844 170 OFFCURVE",
"848 160 OFFCURVE",
"853 151 CURVE SMOOTH",
"863 134 OFFCURVE",
"866 130 OFFCURVE",
"878 129 CURVE",
"881 128 OFFCURVE",
"884 128 OFFCURVE",
"887 125 CURVE",
"891 123 OFFCURVE",
"892 122 OFFCURVE",
"892 117 CURVE SMOOTH",
"892 112 OFFCURVE",
"889 108 OFFCURVE",
"876 102 CURVE SMOOTH",
"865 97 OFFCURVE",
"863 96 OFFCURVE",
"849 95 CURVE"
);
},
{
closed = 1;
nodes = (
"982 95 OFFCURVE",
"978 95 OFFCURVE",
"965 98 CURVE",
"957 98 OFFCURVE",
"951 100 OFFCURVE",
"945 103 CURVE SMOOTH",
"932 110 OFFCURVE",
"932 113 OFFCURVE",
"919 129 CURVE",
"913 138 OFFCURVE",
"915 134 OFFCURVE",
"908 154 CURVE",
"904 162 LINE",
"904 166 OFFCURVE",
"898 177 OFFCURVE",
"892 183 CURVE SMOOTH",
"885 190 OFFCURVE",
"883 195 OFFCURVE",
"885 201 CURVE SMOOTH",
"887 207 OFFCURVE",
"892 210 OFFCURVE",
"902 210 CURVE SMOOTH",
"923 210 OFFCURVE",
"953 207 OFFCURVE",
"957 207 CURVE",
"961 206 OFFCURVE",
"971 198 OFFCURVE",
"977 190 CURVE",
"979 188 OFFCURVE",
"979 187 OFFCURVE",
"981 184 CURVE",
"982 182 OFFCURVE",
"984 177 OFFCURVE",
"986 174 CURVE",
"996 151 LINE",
"1006 134 OFFCURVE",
"1009 130 OFFCURVE",
"1021 129 CURVE",
"1024 128 OFFCURVE",
"1027 128 OFFCURVE",
"1031 125 CURVE",
"1035 123 OFFCURVE",
"1035 122 OFFCURVE",
"1035 117 CURVE SMOOTH",
"1035 112 OFFCURVE",
"1033 108 OFFCURVE",
"1020 102 CURVE",
"1008 97 OFFCURVE",
"1006 96 OFFCURVE",
"992 95 CURVE"
);
}
);
width = 1247;
}
);
unicode = 0050;
},
{
glyphname = a;
lastChange = "2019-03-05 05:48:29 +0000";
layers = (
{
layerId = "6AE76F26-A731-4FB1-ABE3-4EB47684FF25";
paths = (
{
closed = 1;
nodes = (
"456 -287 OFFCURVE",
"448 -283 OFFCURVE",
"443 -280 CURVE SMOOTH",
"429 -272 OFFCURVE",
"429 -267 OFFCURVE",
"443 -252 CURVE SMOOTH",
"454 -240 OFFCURVE",
"462 -228 OFFCURVE",
"462 -226 CURVE SMOOTH",
"462 -219 OFFCURVE",
"406 -232 OFFCURVE",
"310 -260 CURVE SMOOTH",
"221 -286 OFFCURVE",
"224 -285 OFFCURVE",
"185 -287 CURVE SMOOTH",
"143 -289 OFFCURVE",
"127 -285 OFFCURVE",
"109 -271 CURVE SMOOTH",
"94 -259 OFFCURVE",
"89 -252 OFFCURVE",
"87 -238 CURVE",
"84 -226 OFFCURVE",
"84 -223 OFFCURVE",
"87 -214 CURVE",
"93 -198 OFFCURVE",
"98 -189 OFFCURVE",
"111 -177 CURVE",
"123 -165 OFFCURVE",
"140 -158 OFFCURVE",
"160 -155 CURVE SMOOTH",
"172 -153 OFFCURVE",
"174 -153 OFFCURVE",
"181 -157 CURVE",
"186 -159 OFFCURVE",
"192 -163 OFFCURVE",
"194 -167 CURVE SMOOTH",
"199 -177 OFFCURVE",
"197 -181 OFFCURVE",
"179 -208 CURVE",
"158 -236 OFFCURVE",
"159 -238 OFFCURVE",
"190 -238 CURVE SMOOTH",
"210 -238 OFFCURVE",
"216 -238 OFFCURVE",
"260 -228 CURVE",
"285 -220 OFFCURVE",
"325 -210 OFFCURVE",
"346 -204 CURVE SMOOTH",
"392 -191 OFFCURVE",
"422 -184 OFFCURVE",
"456 -183 CURVE SMOOTH",
"478 -182 OFFCURVE",
"482 -182 OFFCURVE",
"492 -186 CURVE",
"509 -191 OFFCURVE",
"528 -207 OFFCURVE",
"532 -217 CURVE",
"537 -228 OFFCURVE",
"534 -247 OFFCURVE",
"528 -257 CURVE",
"512 -281 OFFCURVE",
"482 -295 OFFCURVE",
"462 -289 CURVE SMOOTH"
);
}
);
width = 675;
}
);
unicode = 0061;
},
{
glyphname = b;
lastChange = "2019-03-05 05:48:29 +0000";
layers = (
{
components = (
{
name = ex;
transform = "{1, 0, 0, 1, 300, 0}";
}
);
layerId = "6AE76F26-A731-4FB1-ABE3-4EB47684FF25";
paths = (
{
closed = 1;
nodes = (
"305 241 OFFCURVE",
"298 245 OFFCURVE",
"295 248 CURVE",
"290 253 LINE",
"294 309 LINE",
"297 340 OFFCURVE",
"299 367 OFFCURVE",
"299 369 CURVE",
"299 372 OFFCURVE",
"296 372 OFFCURVE",
"255 372 CURVE",
"230 372 OFFCURVE",
"203 371 OFFCURVE",
"194 370 CURVE",
"145 365 OFFCURVE",
"133 366 OFFCURVE",
"124 375 CURVE",
"120 379 OFFCURVE",
"119 380 OFFCURVE",
"120 391 CURVE",
"122 404 OFFCURVE",
"125 412 OFFCURVE",
"133 417 CURVE",
"137 421 OFFCURVE",
"140 421 OFFCURVE",
"153 420 CURVE",
"182 419 OFFCURVE",
"274 419 OFFCURVE",
"330 421 CURVE",
"386 423 LINE",
"389 418 LINE",
"394 412 OFFCURVE",
"393 400 OFFCURVE",
"386 387 CURVE",
"379 370 OFFCURVE",
"374 347 OFFCURVE",
"372 311 CURVE",
"370 267 OFFCURVE",
"365 254 OFFCURVE",
"345 240 CURVE",
"334 233 OFFCURVE",
"328 233 OFFCURVE",
"312 239 CURVE"
);
},
{
closed = 1;
nodes = (
"474 233 OFFCURVE",
"468 233 OFFCURVE",
"457 240 CURVE",
"437 254 OFFCURVE",
"432 267 OFFCURVE",
"430 311 CURVE",
"428 347 OFFCURVE",
"423 370 OFFCURVE",
"416 387 CURVE",
"409 400 OFFCURVE",
"408 412 OFFCURVE",
"413 418 CURVE",
"416 423 LINE",
"472 421 LINE",
"528 419 OFFCURVE",
"620 419 OFFCURVE",
"649 420 CURVE",
"662 421 OFFCURVE",
"665 421 OFFCURVE",
"669 417 CURVE",
"677 412 OFFCURVE",
"680 404 OFFCURVE",
"682 391 CURVE",
"683 380 OFFCURVE",
"682 379 OFFCURVE",
"678 375 CURVE",
"669 366 OFFCURVE",
"657 365 OFFCURVE",
"608 370 CURVE",
"599 371 OFFCURVE",
"572 372 OFFCURVE",
"547 372 CURVE",
"506 372 OFFCURVE",
"503 372 OFFCURVE",
"503 369 CURVE",
"503 367 OFFCURVE",
"505 340 OFFCURVE",
"508 309 CURVE",
"512 253 LINE",
"507 248 LINE",
"504 245 OFFCURVE",
"497 241 OFFCURVE",
"490 239 CURVE"
);
}
);
width = 802;
}
);
unicode = 0062;
},
{
glyphname = c;
lastChange = "2019-03-05 05:48:29 +0000";
layers = (
{
components = (
{
name = ex;
transform = "{1, 0, 0, 1, 220, 0}";
}
);
layerId = "6AE76F26-A731-4FB1-ABE3-4EB47684FF25";
paths = (
{
closed = 1;
nodes = (
"392 419 OFFCURVE",
"391 420 OFFCURVE",
"388 423 CURVE SMOOTH",
"379 432 OFFCURVE",
"367 433 OFFCURVE",
"318 428 CURVE SMOOTH",
"309 427 OFFCURVE",
"282 426 OFFCURVE",
"257 426 CURVE SMOOTH",
"216 426 OFFCURVE",
"213 426 OFFCURVE",
"213 429 CURVE SMOOTH",
"213 431 OFFCURVE",
"215 458 OFFCURVE",
"218 489 CURVE SMOOTH",
"222 545 LINE",
"217 550 LINE SMOOTH",
"214 553 OFFCURVE",
"207 557 OFFCURVE",
"200 559 CURVE",
"184 565 OFFCURVE",
"178 565 OFFCURVE",
"167 558 CURVE",
"147 544 OFFCURVE",
"142 531 OFFCURVE",
"140 487 CURVE SMOOTH",
"138 451 OFFCURVE",
"133 428 OFFCURVE",
"126 411 CURVE",
"120 401 OFFCURVE",
"119 391 OFFCURVE",
"121 385 CURVE",
"121 379 OFFCURVE",
"122 378 OFFCURVE",
"125 375 CURVE SMOOTH",
"134 366 OFFCURVE",
"146 365 OFFCURVE",
"195 370 CURVE SMOOTH",
"204 371 OFFCURVE",
"231 372 OFFCURVE",
"256 372 CURVE SMOOTH",
"297 372 OFFCURVE",
"300 372 OFFCURVE",
"300 369 CURVE SMOOTH",
"300 367 OFFCURVE",
"298 340 OFFCURVE",
"295 309 CURVE SMOOTH",
"291 253 LINE",
"296 248 LINE SMOOTH",
"299 245 OFFCURVE",
"306 241 OFFCURVE",
"313 239 CURVE",
"329 233 OFFCURVE",
"335 233 OFFCURVE",
"346 240 CURVE",
"366 254 OFFCURVE",
"371 267 OFFCURVE",
"373 311 CURVE SMOOTH",
"375 347 OFFCURVE",
"380 370 OFFCURVE",
"387 387 CURVE",
"393 397 OFFCURVE",
"394 407 OFFCURVE",
"392 413 CURVE"
);
}
);
width = 593;
}
);
unicode = 0063;
},
{
glyphname = d;
lastChange = "2019-03-05 05:48:29 +0000";
layers = (
{
components = (
{
name = a;
transform = "{1, 0, 0, 1, 0, -110}";
}
);
layerId = "6AE76F26-A731-4FB1-ABE3-4EB47684FF25";
paths = (
{
closed = 1;
nodes = (
"357 -230 OFFCURVE",
"349 -229 OFFCURVE",
"348 -228 CURVE",
"345 -226 OFFCURVE",
"346 -219 OFFCURVE",
"350 -216 CURVE",
"352 -215 OFFCURVE",
"354 -211 OFFCURVE",
"355 -206 CURVE",
"357 -190 OFFCURVE",
"341 -169 OFFCURVE",
"307 -145 CURVE",
"288 -132 OFFCURVE",
"287 -128 OFFCURVE",
"302 -128 CURVE",
"322 -128 OFFCURVE",
"350 -141 OFFCURVE",
"380 -162 CURVE",
"404 -179 OFFCURVE",
"416 -211 OFFCURVE",
"405 -228 CURVE",
"402 -232 OFFCURVE",
"401 -233 OFFCURVE",
"391 -232 CURVE",
"385 -232 OFFCURVE",
"373 -232 OFFCURVE",
"365 -231 CURVE"
);
},
{
closed = 1;
nodes = (
"263 -216 OFFCURVE",
"257 -214 OFFCURVE",
"254 -211 CURVE",
"252 -208 OFFCURVE",
"252 -206 OFFCURVE",
"257 -199 CURVE",
"264 -188 OFFCURVE",
"263 -185 OFFCURVE",
"252 -173 CURVE",
"242 -162 OFFCURVE",
"232 -156 OFFCURVE",
"212 -145 CURVE",
"204 -140 OFFCURVE",
"197 -136 OFFCURVE",
"197 -135 CURVE",
"197 -133 OFFCURVE",
"199 -131 OFFCURVE",
"202 -129 CURVE",
"206 -127 OFFCURVE",
"208 -127 OFFCURVE",
"230 -133 CURVE",
"258 -141 OFFCURVE",
"286 -153 OFFCURVE",
"298 -164 CURVE",
"310 -175 OFFCURVE",
"316 -187 OFFCURVE",
"316 -201 CURVE",
"316 -217 OFFCURVE",
"312 -220 OFFCURVE",
"295 -220 CURVE",
"288 -220 OFFCURVE",
"279 -219 OFFCURVE",
"274 -218 CURVE"
);
}
);
width = 675;
}
);
unicode = 0064;
},
{
glyphname = e;
lastChange = "2019-03-05 05:48:29 +0000";
layers = (
{
layerId = "6AE76F26-A731-4FB1-ABE3-4EB47684FF25";
paths = (
{
closed = 1;
nodes = (
"209 -459 OFFCURVE",
"200 -438 OFFCURVE",
"199 -338 CURVE SMOOTH",
"198 -224 OFFCURVE",
"193 -216 OFFCURVE",
"168 -216 CURVE SMOOTH",
"149 -216 OFFCURVE",
"144 -225 OFFCURVE",
"144 -281 CURVE SMOOTH",
"144 -322 OFFCURVE",
"143 -323 OFFCURVE",
"157 -332 CURVE SMOOTH",
"166 -338 OFFCURVE",
"168 -341 OFFCURVE",
"163 -348 CURVE SMOOTH",
"151 -365 OFFCURVE",
"102 -358 OFFCURVE",
"88 -337 CURVE SMOOTH",
"79 -324 OFFCURVE",
"78 -320 OFFCURVE",
"80 -292 CURVE SMOOTH",
"85 -230 OFFCURVE",
"108 -189 OFFCURVE",
"144 -174 CURVE SMOOTH",
"168 -164 OFFCURVE",
"209 -172 OFFCURVE",
"233 -195 CURVE SMOOTH",
"251 -212 OFFCURVE",
"265 -281 OFFCURVE",
"265 -368 CURVE SMOOTH",
"265 -417 OFFCURVE",
"271 -429 OFFCURVE",
"287 -445 CURVE",
"304 -460 OFFCURVE",
"300 -467 OFFCURVE",
"277 -477 CURVE SMOOTH",
"254 -487 OFFCURVE",
"242 -483 OFFCURVE",
"231 -475 CURVE SMOOTH"
);
},
{
closed = 1;
nodes = (
"429 -459 OFFCURVE",
"420 -438 OFFCURVE",
"419 -338 CURVE SMOOTH",
"418 -224 OFFCURVE",
"413 -216 OFFCURVE",
"388 -216 CURVE SMOOTH",
"369 -216 OFFCURVE",
"364 -225 OFFCURVE",
"364 -281 CURVE SMOOTH",
"364 -322 OFFCURVE",
"363 -323 OFFCURVE",
"377 -332 CURVE SMOOTH",
"386 -338 OFFCURVE",
"388 -341 OFFCURVE",
"383 -348 CURVE SMOOTH",
"371 -365 OFFCURVE",
"322 -358 OFFCURVE",
"308 -337 CURVE SMOOTH",
"299 -324 OFFCURVE",
"298 -320 OFFCURVE",
"300 -292 CURVE SMOOTH",
"304 -230 OFFCURVE",
"328 -189 OFFCURVE",
"364 -174 CURVE SMOOTH",
"388 -164 OFFCURVE",
"429 -172 OFFCURVE",
"453 -195 CURVE SMOOTH",
"471 -212 OFFCURVE",
"485 -281 OFFCURVE",
"485 -368 CURVE SMOOTH",
"485 -417 OFFCURVE",
"491 -429 OFFCURVE",
"507 -445 CURVE",
"524 -460 OFFCURVE",
"520 -467 OFFCURVE",
"497 -477 CURVE SMOOTH",
"474 -487 OFFCURVE",
"462 -483 OFFCURVE",
"451 -475 CURVE SMOOTH"
);
}
);
width = 654;
}
);
unicode = 0065;
},
{
glyphname = f;
lastChange = "2019-03-05 05:48:29 +0000";
layers = (
{
layerId = "6AE76F26-A731-4FB1-ABE3-4EB47684FF25";
paths = (
{
closed = 1;
nodes = (
"69 -428 OFFCURVE",
"65 -421 OFFCURVE",
"65 -415 CURVE SMOOTH",
"65 -408 OFFCURVE",
"88 -385 OFFCURVE",
"118 -361 CURVE SMOOTH",
"145 -340 LINE",
"139 -329 LINE",
"133 -316 OFFCURVE",
"130 -296 OFFCURVE",
"134 -284 CURVE",
"142 -263 OFFCURVE",
"164 -243 OFFCURVE",
"192 -234 CURVE SMOOTH",
"209 -228 OFFCURVE",
"252 -225 OFFCURVE",
"274 -228 CURVE",
"287 -229 OFFCURVE",
"289 -228 OFFCURVE",
"297 -223 CURVE",
"302 -219 OFFCURVE",
"308 -214 OFFCURVE",
"310 -210 CURVE",
"314 -204 LINE",
"293 -190 LINE",
"280 -183 OFFCURVE",
"270 -175 OFFCURVE",
"270 -174 CURVE",
"268 -170 OFFCURVE",
"272 -165 OFFCURVE",
"279 -159 CURVE SMOOTH",
"284 -155 OFFCURVE",
"284 -155 OFFCURVE",
"295 -159 CURVE",
"302 -161 OFFCURVE",
"312 -168 OFFCURVE",
"319 -171 CURVE",
"325 -176 OFFCURVE",
"333 -180 OFFCURVE",
"334 -180 CURVE SMOOTH",
"335 -180 OFFCURVE",
"343 -173 OFFCURVE",
"352 -165 CURVE SMOOTH",
"373 -145 OFFCURVE",
"380 -143 OFFCURVE",
"393 -149 CURVE",
"420 -163 OFFCURVE",
"419 -171 OFFCURVE",
"385 -195 CURVE",
"372 -205 OFFCURVE",
"369 -210 OFFCURVE",
"378 -218 CURVE SMOOTH",
"408 -243 OFFCURVE",
"414 -250 OFFCURVE",
"408 -256 CURVE",
"403 -264 OFFCURVE",
"394 -260 OFFCURVE",
"373 -245 CURVE",
"362 -236 OFFCURVE",
"352 -229 OFFCURVE",
"350 -228 CURVE",
"348 -226 OFFCURVE",
"327 -236 OFFCURVE",
"323 -241 CURVE",
"320 -244 OFFCURVE",
"323 -248 OFFCURVE",
"329 -255 CURVE SMOOTH",
"334 -261 OFFCURVE",
"340 -271 OFFCURVE",
"344 -278 CURVE",
"349 -289 OFFCURVE",
"350 -291 OFFCURVE",
"348 -301 CURVE",
"340 -333 OFFCURVE",
"298 -360 OFFCURVE",
"245 -368 CURVE SMOOTH",
"232 -370 OFFCURVE",
"227 -370 OFFCURVE",
"209 -365 CURVE",
"198 -363 OFFCURVE",
"187 -359 OFFCURVE",
"183 -356 CURVE",
"178 -353 LINE",
"152 -380 LINE SMOOTH",
"113 -421 OFFCURVE",
"90 -444 OFFCURVE",
"88 -444 CURVE SMOOTH",
"85 -444 OFFCURVE",
"82 -440 OFFCURVE",
"78 -436 CURVE"
);
},
{
closed = 1;
nodes = (
"270 -323 OFFCURVE",
"280 -309 OFFCURVE",
"280 -294 CURVE SMOOTH",
"280 -274 OFFCURVE",
"267 -259 OFFCURVE",
"243 -256 CURVE SMOOTH",
"233 -255 OFFCURVE",
"230 -256 OFFCURVE",
"218 -265 CURVE",
"198 -278 OFFCURVE",
"194 -289 OFFCURVE",
"200 -310 CURVE",
"209 -333 OFFCURVE",
"230 -343 OFFCURVE",
"249 -333 CURVE"
);
}
);
width = 607;
}
);
unicode = 0066;
},
{
glyphname = g;
lastChange = "2019-03-05 05:48:29 +0000";
layers = (
{
layerId = "6AE76F26-A731-4FB1-ABE3-4EB47684FF25";
paths = (
{
closed = 1;
nodes = (
"82 -444 OFFCURVE",
"70 -435 OFFCURVE",
"70 -432 CURVE SMOOTH",
"70 -429 OFFCURVE",
"80 -419 OFFCURVE",
"92 -408 CURVE",
"115 -389 LINE",
"101 -380 LINE",
"95 -375 OFFCURVE",
"83 -370 OFFCURVE",
"77 -368 CURVE",
"65 -363 OFFCURVE",
"60 -354 OFFCURVE",
"67 -348 CURVE",
"70 -345 OFFCURVE",
"73 -343 OFFCURVE",
"76 -343 CURVE SMOOTH",
"78 -343 OFFCURVE",
"93 -349 OFFCURVE",
"108 -357 CURVE",
"123 -364 OFFCURVE",
"136 -369 OFFCURVE",
"137 -369 CURVE SMOOTH",
"138 -369 OFFCURVE",
"145 -365 OFFCURVE",
"152 -362 CURVE",
"163 -353 LINE",
"150 -338 LINE",
"126 -315 OFFCURVE",
"122 -303 OFFCURVE",
"131 -284 CURVE",
"136 -272 OFFCURVE",
"156 -254 OFFCURVE",
"175 -244 CURVE SMOOTH",
"195 -233 OFFCURVE",
"227 -223 OFFCURVE",
"246 -220 CURVE SMOOTH",
"261 -218 OFFCURVE",
"293 -219 OFFCURVE",
"298 -223 CURVE",
"300 -224 OFFCURVE",
"312 -214 OFFCURVE",
"331 -195 CURVE SMOOTH",
"366 -162 OFFCURVE",
"395 -137 OFFCURVE",
"401 -137 CURVE SMOOTH",
"406 -137 OFFCURVE",
"427 -157 OFFCURVE",
"430 -163 CURVE",
"431 -170 OFFCURVE",
"422 -179 OFFCURVE",
"382 -209 CURVE SMOOTH",
"345 -238 LINE",
"343 -239 OFFCURVE",
"348 -245 OFFCURVE",
"355 -254 CURVE",
"363 -267 OFFCURVE",
"366 -270 OFFCURVE",
"366 -279 CURVE SMOOTH",
"366 -305 OFFCURVE",
"351 -324 OFFCURVE",
"322 -338 CURVE SMOOTH",
"287 -355 OFFCURVE",
"261 -360 OFFCURVE",
"215 -360 CURVE SMOOTH",
"200 -360 OFFCURVE",
"200 -360 OFFCURVE",
"187 -372 CURVE",
"181 -379 OFFCURVE",
"176 -384 OFFCURVE",
"176 -385 CURVE SMOOTH",
"176 -387 OFFCURVE",
"183 -389 OFFCURVE",
"193 -393 CURVE",
"220 -402 OFFCURVE",
"232 -408 OFFCURVE",
"233 -413 CURVE",
"235 -419 OFFCURVE",
"221 -430 OFFCURVE",
"212 -430 CURVE SMOOTH",
"207 -430 OFFCURVE",
"196 -427 OFFCURVE",
"186 -422 CURVE",
"155 -408 OFFCURVE",
"158 -408 OFFCURVE",
"143 -424 CURVE SMOOTH",
"128 -440 OFFCURVE",
"115 -450 OFFCURVE",
"107 -450 CURVE SMOOTH",
"105 -450 OFFCURVE",
"98 -449 OFFCURVE",
"93 -447 CURVE"
);
},
{
closed = 1;
nodes = (
"272 -320 OFFCURVE",
"282 -312 OFFCURVE",
"287 -302 CURVE",
"295 -284 OFFCURVE",
"290 -272 OFFCURVE",
"272 -260 CURVE SMOOTH",
"257 -250 OFFCURVE",
"247 -250 OFFCURVE",
"230 -262 CURVE SMOOTH",
"195 -285 OFFCURVE",
"191 -307 OFFCURVE",
"222 -325 CURVE SMOOTH",
"230 -330 OFFCURVE",
"237 -334 OFFCURVE",
"238 -334 CURVE SMOOTH",
"240 -334 OFFCURVE",
"246 -332 OFFCURVE",
"252 -329 CURVE"
);
}
);
width = 623;
}
);
unicode = 0067;
},
{
glyphname = h;
lastChange = "2019-03-05 05:48:29 +0000";
layers = (
{
layerId = "6AE76F26-A731-4FB1-ABE3-4EB47684FF25";
paths = (
{
closed = 1;
nodes = (
"95 -432 OFFCURVE",
"64 -396 OFFCURVE",
"64 -379 CURVE SMOOTH",
"64 -359 OFFCURVE",
"77 -339 OFFCURVE",
"90 -339 CURVE SMOOTH",
"98 -339 OFFCURVE",
"110 -352 OFFCURVE",
"119 -371 CURVE",
"133 -397 OFFCURVE",
"147 -396 OFFCURVE",
"178 -363 CURVE SMOOTH",
"192 -348 OFFCURVE",
"204 -333 OFFCURVE",
"204 -331 CURVE SMOOTH",
"204 -329 OFFCURVE",
"202 -323 OFFCURVE",
"198 -317 CURVE",
"185 -294 OFFCURVE",
"180 -263 OFFCURVE",
"187 -242 CURVE SMOOTH",
"190 -232 OFFCURVE",
"204 -216 OFFCURVE",
"218 -208 CURVE",
"228 -204 OFFCURVE",
"232 -203 OFFCURVE",
"252 -203 CURVE SMOOTH",
"278 -203 OFFCURVE",
"288 -207 OFFCURVE",
"303 -221 CURVE",
"313 -229 LINE",
"355 -186 LINE SMOOTH",
"378 -162 OFFCURVE",
"398 -143 OFFCURVE",
"399 -143 CURVE SMOOTH",
"403 -143 OFFCURVE",
"418 -157 OFFCURVE",
"420 -164 CURVE",
"427 -179 OFFCURVE",
"425 -186 OFFCURVE",
"410 -199 CURVE",
"404 -206 OFFCURVE",
"385 -221 OFFCURVE",
"370 -232 CURVE SMOOTH",
"354 -244 OFFCURVE",
"340 -254 OFFCURVE",
"339 -257 CURVE",
"338 -259 OFFCURVE",
"340 -264 OFFCURVE",
"348 -279 CURVE",
"357 -298 OFFCURVE",
"358 -301 OFFCURVE",
"358 -319 CURVE",
"359 -337 OFFCURVE",
"359 -341 OFFCURVE",
"354 -349 CURVE",
"345 -367 OFFCURVE",
"320 -382 OFFCURVE",
"298 -382 CURVE SMOOTH",
"284 -382 OFFCURVE",
"255 -376 OFFCURVE",
"242 -371 CURVE SMOOTH",
"230 -366 LINE",
"227 -371 LINE",
"210 -396 OFFCURVE",
"183 -421 OFFCURVE",
"157 -434 CURVE SMOOTH",
"138 -443 OFFCURVE",
"129 -444 OFFCURVE",
"117 -439 CURVE"
);
},
{
closed = 1;
nodes = (
"294 -314 OFFCURVE",
"300 -299 OFFCURVE",
"300 -281 CURVE SMOOTH",
"300 -263 OFFCURVE",
"298 -261 OFFCURVE",
"278 -261 CURVE SMOOTH",
"262 -261 OFFCURVE",
"255 -264 OFFCURVE",
"248 -279 CURVE SMOOTH",
"240 -297 OFFCURVE",
"240 -311 OFFCURVE",
"249 -319 CURVE",
"255 -326 OFFCURVE",
"257 -327 OFFCURVE",
"267 -326 CURVE",
"273 -324 OFFCURVE",
"280 -322 OFFCURVE",
"284 -319 CURVE"
);
}
);
width = 618;
}
);
unicode = 0068;
},
{
glyphname = i;
lastChange = "2019-03-05 05:48:29 +0000";
layers = (
{
layerId = "6AE76F26-A731-4FB1-ABE3-4EB47684FF25";
paths = (
{
closed = 1;
nodes = (
"403 531 OFFCURVE",
"314 549 OFFCURVE",
"287 552 CURVE",
"264 556 OFFCURVE",
"222 562 OFFCURVE",
"218 562 CURVE",
"218 562 OFFCURVE",
"222 565 OFFCURVE",
"229 568 CURVE",
"236 573 OFFCURVE",
"241 575 OFFCURVE",
"249 575 CURVE",
"266 579 OFFCURVE",
"295 588 OFFCURVE",
"316 596 CURVE",
"338 604 OFFCURVE",
"373 622 OFFCURVE",
"385 630 CURVE",
"401 640 OFFCURVE",
"428 671 OFFCURVE",
"448 701 CURVE",
"462 722 OFFCURVE",
"470 736 OFFCURVE",
"478 758 CURVE",
"493 794 OFFCURVE",
"508 821 OFFCURVE",
"517 829 CURVE",
"519 831 OFFCURVE",
"524 833 OFFCURVE",
"534 835 CURVE",
"547 838 OFFCURVE",
"550 838 OFFCURVE",
"567 838 CURVE",
"581 838 OFFCURVE",
"586 838 OFFCURVE",
"588 836 CURVE",
"593 833 OFFCURVE",
"604 825 OFFCURVE",
"604 824 CURVE",
"604 823 OFFCURVE",
"600 818 OFFCURVE",
"596 812 CURVE",
"588 799 OFFCURVE",
"573 769 OFFCURVE",
"564 748 CURVE",
"548 709 OFFCURVE",
"533 684 OFFCURVE",
"504 655 CURVE",
"492 643 OFFCURVE",
"487 639 OFFCURVE",
"463 624 CURVE",
"439 607 OFFCURVE",
"433 605 OFFCURVE",
"392 587 CURVE",
"362 573 OFFCURVE",
"347 567 OFFCURVE",
"344 567 CURVE",
"339 567 OFFCURVE",
"341 566 OFFCURVE",
"351 562 CURVE",
"367 556 OFFCURVE",
"383 550 OFFCURVE",
"395 542 CURVE",
"400 538 OFFCURVE",
"404 536 OFFCURVE",
"405 536 CURVE",
"407 536 OFFCURVE",
"418 527 OFFCURVE",
"419 525 CURVE",
"420 524 OFFCURVE",
"419 524 OFFCURVE",
"413 526 CURVE"
);
},
{
closed = 1;
nodes = (
"443 -299 OFFCURVE",
"435 -295 OFFCURVE",
"435 -288 CURVE",
"435 -286 OFFCURVE",
"440 -268 OFFCURVE",
"446 -251 CURVE",
"456 -221 OFFCURVE",
"457 -220 OFFCURVE",
"455 -211 CURVE",
"452 -195 OFFCURVE",
"436 -174 OFFCURVE",
"409 -147 CURVE",
"356 -93 OFFCURVE",
"331 -53 OFFCURVE",
"322 -9 CURVE",
"318 15 OFFCURVE",
"319 61 OFFCURVE",
"326 104 CURVE",
"328 110 OFFCURVE",
"326 110 OFFCURVE",
"304 88 CURVE",
"270 55 OFFCURVE",
"251 44 OFFCURVE",
"219 42 CURVE",
"205 41 OFFCURVE",
"199 41 OFFCURVE",
"191 43 CURVE",
"143 58 OFFCURVE",
"133 105 OFFCURVE",
"166 161 CURVE",
"185 193 OFFCURVE",
"224 231 OFFCURVE",
"252 244 CURVE",
"270 253 OFFCURVE",
"291 260 OFFCURVE",
"301 260 CURVE",
"312 260 OFFCURVE",
"325 251 OFFCURVE",
"337 237 CURVE",
"344 228 LINE",
"348 245 LINE",
"351 255 OFFCURVE",
"355 264 OFFCURVE",
"357 267 CURVE",
"362 272 OFFCURVE",
"363 272 OFFCURVE",
"369 270 CURVE",
"384 264 OFFCURVE",
"406 253 OFFCURVE",
"410 248 CURVE",
"416 242 LINE",
"405 208 LINE",
"376 116 OFFCURVE",
"361 49 OFFCURVE",
"361 18 CURVE",
"361 8 OFFCURVE",
"363 -3 OFFCURVE",
"367 -19 CURVE",
"378 -59 OFFCURVE",
"385 -73 OFFCURVE",
"396 -85 CURVE",
"408 -99 OFFCURVE",
"434 -117 OFFCURVE",
"463 -133 CURVE",
"497 -150 OFFCURVE",
"513 -176 OFFCURVE",
"518 -220 CURVE",
"520 -237 OFFCURVE",
"520 -238 OFFCURVE",
"513 -266 CURVE",
"509 -282 OFFCURVE",
"505 -295 OFFCURVE",
"502 -298 CURVE",
"498 -302 OFFCURVE",
"482 -303 OFFCURVE",
"462 -301 CURVE"
);
},
{
closed = 1;
nodes = (
"270 93 OFFCURVE",
"291 130 OFFCURVE",
"302 176 CURVE",
"307 192 OFFCURVE",
"310 207 OFFCURVE",
"310 213 CURVE",
"312 220 OFFCURVE",
"311 222 OFFCURVE",
"308 224 CURVE",
"297 227 OFFCURVE",
"267 198 OFFCURVE",
"249 169 CURVE",
"226 129 OFFCURVE",
"220 101 OFFCURVE",
"230 85 CURVE",
"233 80 OFFCURVE",
"241 80 OFFCURVE",
"252 84 CURVE"
);
},
{
closed = 1;
nodes = (
"381 312 OFFCURVE",
"373 313 OFFCURVE",
"372 314 CURVE",
"368 316 OFFCURVE",
"369 324 OFFCURVE",
"374 327 CURVE",
"376 328 OFFCURVE",
"378 333 OFFCURVE",
"379 338 CURVE",
"381 356 OFFCURVE",
"364 379 OFFCURVE",
"326 405 CURVE",
"306 420 OFFCURVE",
"304 424 OFFCURVE",
"321 424 CURVE",
"343 424 OFFCURVE",
"374 410 OFFCURVE",
"407 387 CURVE",
"433 368 OFFCURVE",
"446 333 OFFCURVE",
"434 314 CURVE",
"431 310 OFFCURVE",
"430 308 OFFCURVE",
"419 310 CURVE",
"412 310 OFFCURVE",
"399 310 OFFCURVE",
"390 311 CURVE"
);
},
{
closed = 1;
nodes = (
"278 327 OFFCURVE",
"271 329 OFFCURVE",
"268 333 CURVE",
"266 336 OFFCURVE",
"266 338 OFFCURVE",
"271 346 CURVE",
"279 358 OFFCURVE",
"278 361 OFFCURVE",
"266 374 CURVE",
"255 387 OFFCURVE",
"244 393 OFFCURVE",
"222 405 CURVE",
"213 411 OFFCURVE",
"205 415 OFFCURVE",
"205 416 CURVE",
"205 418 OFFCURVE",
"208 421 OFFCURVE",
"211 423 CURVE",
"215 425 OFFCURVE",
"218 425 OFFCURVE",
"242 418 CURVE",
"273 410 OFFCURVE",
"303 396 OFFCURVE",
"317 384 CURVE",
"330 372 OFFCURVE",
"336 359 OFFCURVE",
"336 344 CURVE",
"336 326 OFFCURVE",
"332 323 OFFCURVE",
"313 323 CURVE",
"306 323 OFFCURVE",
"296 324 OFFCURVE",
"290 325 CURVE"
);
}
);
width = 700;
}
);
unicode = 0069;
},
{
glyphname = j;
lastChange = "2019-03-05 05:48:29 +0000";
layers = (
{
layerId = "6AE76F26-A731-4FB1-ABE3-4EB47684FF25";
paths = (
{
closed = 1;
nodes = (
"673 -390 OFFCURVE",
"669 -387 OFFCURVE",
"667 -386 CURVE",
"665 -383 OFFCURVE",
"665 -382 OFFCURVE",
"669 -372 CURVE SMOOTH",
"674 -359 OFFCURVE",
"674 -354 OFFCURVE",
"671 -343 CURVE",
"667 -334 OFFCURVE",
"659 -326 OFFCURVE",
"647 -320 CURVE",
"638 -316 OFFCURVE",
"606 -310 OFFCURVE",
"592 -310 CURVE SMOOTH",
"582 -310 LINE",
"582 -316 LINE SMOOTH",
"582 -330 OFFCURVE",
"575 -342 OFFCURVE",
"561 -348 CURVE",
"547 -356 OFFCURVE",
"530 -351 OFFCURVE",
"530 -340 CURVE SMOOTH",
"530 -338 OFFCURVE",
"532 -330 OFFCURVE",
"535 -321 CURVE",
"538 -313 OFFCURVE",
"540 -306 OFFCURVE",
"539 -306 CURVE",
"538 -305 OFFCURVE",
"475 -299 OFFCURVE",
"473 -300 CURVE SMOOTH",
"471 -301 OFFCURVE",
"469 -306 OFFCURVE",
"467 -312 CURVE SMOOTH",
"454 -347 OFFCURVE",
"432 -377 OFFCURVE",
"412 -386 CURVE",
"395 -395 OFFCURVE",
"374 -389 OFFCURVE",
"357 -373 CURVE SMOOTH",
"344 -360 OFFCURVE",
"340 -349 OFFCURVE",
"339 -328 CURVE",
"339 -318 OFFCURVE",
"337 -310 OFFCURVE",
"335 -306 CURVE",
"333 -300 LINE",
"318 -300 LINE SMOOTH",
"310 -300 OFFCURVE",
"258 -301 OFFCURVE",
"203 -303 CURVE SMOOTH",
"60 -308 OFFCURVE",
"65 -308 OFFCURVE",
"62 -305 CURVE",
"59 -301 OFFCURVE",
"61 -294 OFFCURVE",
"68 -291 CURVE",
"79 -285 OFFCURVE",
"94 -284 OFFCURVE",
"162 -282 CURVE SMOOTH",
"204 -281 OFFCURVE",
"235 -279 OFFCURVE",
"248 -279 CURVE",
"260 -277 OFFCURVE",
"284 -275 OFFCURVE",
"302 -274 CURVE SMOOTH",
"333 -273 LINE",
"340 -269 LINE",
"344 -265 OFFCURVE",
"348 -259 OFFCURVE",
"354 -247 CURVE SMOOTH",
"362 -232 OFFCURVE",
"365 -228 OFFCURVE",
"375 -217 CURVE",
"382 -211 OFFCURVE",
"392 -202 OFFCURVE",
"396 -200 CURVE",
"403 -194 OFFCURVE",
"406 -194 OFFCURVE",
"416 -193 CURVE SMOOTH",
"425 -192 OFFCURVE",
"431 -193 OFFCURVE",
"435 -195 CURVE",
"444 -199 OFFCURVE",
"455 -210 OFFCURVE",
"460 -221 CURVE",
"466 -229 OFFCURVE",
"472 -251 OFFCURVE",
"474 -264 CURVE SMOOTH",
"475 -272 LINE",
"497 -272 LINE SMOOTH",
"509 -272 OFFCURVE",
"524 -273 OFFCURVE",
"531 -274 CURVE",
"544 -275 LINE",
"542 -260 LINE",
"541 -246 OFFCURVE",
"541 -246 OFFCURVE",
"546 -241 CURVE SMOOTH",
"552 -235 OFFCURVE",
"557 -233 OFFCURVE",
"565 -233 CURVE SMOOTH",
"571 -233 OFFCURVE",
"573 -234 OFFCURVE",
"577 -240 CURVE",
"584 -246 LINE",
"584 -276 LINE",
"589 -279 LINE",
"596 -281 OFFCURVE",
"629 -288 OFFCURVE",
"653 -291 CURVE SMOOTH",
"668 -293 OFFCURVE",
"677 -296 OFFCURVE",
"697 -304 CURVE SMOOTH",
"724 -314 OFFCURVE",
"732 -318 OFFCURVE",
"743 -327 CURVE",
"755 -338 OFFCURVE",
"759 -344 OFFCURVE",
"759 -357 CURVE SMOOTH",
"759 -367 OFFCURVE",
"759 -367 OFFCURVE",
"751 -378 CURVE",
"737 -395 OFFCURVE",
"737 -395 OFFCURVE",
"707 -395 CURVE SMOOTH",
"686 -395 OFFCURVE",
"679 -394 OFFCURVE",
"675 -392 CURVE"
);
},
{
closed = 1;
nodes = (
"414 -331 OFFCURVE",
"423 -314 OFFCURVE",
"424 -304 CURVE",
"425 -297 LINE",
"380 -297 LINE",
"379 -303 LINE",
"377 -310 OFFCURVE",
"378 -324 OFFCURVE",
"379 -329 CURVE",
"381 -335 OFFCURVE",
"390 -341 OFFCURVE",
"397 -341 CURVE SMOOTH",
"401 -341 OFFCURVE",
"405 -339 OFFCURVE",
"408 -337 CURVE"
);
},
{
closed = 1;
nodes = (
"431 -256 OFFCURVE",
"427 -241 OFFCURVE",
"419 -236 CURVE",
"412 -232 OFFCURVE",
"407 -232 OFFCURVE",
"397 -238 CURVE",
"388 -242 OFFCURVE",
"382 -250 OFFCURVE",
"382 -260 CURVE",
"380 -273 OFFCURVE",
"380 -272 OFFCURVE",
"404 -272 CURVE SMOOTH",
"426 -272 LINE",
"428 -267 LINE"
);
}
);
width = 779;
}
);
unicode = 006A;
},
{
glyphname = m;
lastChange = "2019-03-05 05:48:29 +0000";
layers = (
{
components = (
{
name = ex;
transform = "{1, 0, 0, 1, 120, 0}";
}
);
layerId = "6AE76F26-A731-4FB1-ABE3-4EB47684FF25";
paths = (
{
closed = 1;
nodes = (
"192 264 OFFCURVE",
"187 279 OFFCURVE",
"185 321 CURVE",
"183 361 OFFCURVE",
"179 381 OFFCURVE",
"168 397 CURVE",
"163 405 OFFCURVE",
"163 411 OFFCURVE",
"168 420 CURVE",
"172 425 LINE",
"260 424 LINE",
"348 423 LINE",
"347 447 LINE",
"345 484 OFFCURVE",
"341 502 OFFCURVE",
"333 518 CURVE",
"327 533 OFFCURVE",
"326 542 OFFCURVE",
"330 549 CURVE",
"334 553 LINE",
"453 553 LINE",
"571 552 LINE",
"579 545 LINE",
"584 540 OFFCURVE",
"586 535 OFFCURVE",
"589 524 CURVE",
"590 501 OFFCURVE",
"593 501 OFFCURVE",
"498 502 CURVE",
"418 504 LINE",
"420 493 LINE",
"420 486 OFFCURVE",
"422 460 OFFCURVE",
"424 433 CURVE",
"427 390 OFFCURVE",
"427 386 OFFCURVE",
"424 381 CURVE",
"420 372 OFFCURVE",
"409 372 OFFCURVE",
"358 374 CURVE",
"333 375 OFFCURVE",
"301 376 OFFCURVE",
"284 376 CURVE",
"256 376 LINE",
"256 371 LINE",
"256 366 OFFCURVE",
"260 342 OFFCURVE",
"261 314 CURVE",
"266 256 OFFCURVE",
"266 258 OFFCURVE",
"242 250 CURVE",
"226 242 OFFCURVE",
"220 243 OFFCURVE",
"210 252 CURVE"
);
}
);
width = 709;
}
);
unicode = 006D;
},
{
glyphname = n;
lastChange = "2019-03-05 05:48:29 +0000";
layers = (
{
components = (
{
name = ex;
transform = "{1, 0, 0, 1, 120, 0}";
}
);
layerId = "6AE76F26-A731-4FB1-ABE3-4EB47684FF25";
paths = (
{
closed = 1;
nodes = (
"226 233 OFFCURVE",
"220 233 OFFCURVE",
"209 240 CURVE",
"189 254 OFFCURVE",
"184 267 OFFCURVE",
"182 311 CURVE",
"180 347 OFFCURVE",
"175 370 OFFCURVE",
"168 387 CURVE",
"161 400 OFFCURVE",
"160 412 OFFCURVE",
"165 418 CURVE",
"168 423 LINE",
"224 421 LINE",
"280 419 OFFCURVE",
"372 419 OFFCURVE",
"401 420 CURVE",
"414 421 OFFCURVE",
"417 421 OFFCURVE",
"421 417 CURVE",
"429 412 OFFCURVE",
"432 404 OFFCURVE",
"434 391 CURVE",
"435 380 OFFCURVE",
"434 379 OFFCURVE",
"430 375 CURVE",
"421 366 OFFCURVE",
"409 365 OFFCURVE",
"360 370 CURVE",
"351 371 OFFCURVE",
"324 372 OFFCURVE",
"299 372 CURVE",
"258 372 OFFCURVE",
"255 372 OFFCURVE",
"255 369 CURVE",
"255 367 OFFCURVE",
"257 340 OFFCURVE",
"260 309 CURVE",
"264 253 LINE",
"259 248 LINE",
"256 245 OFFCURVE",
"249 241 OFFCURVE",
"242 239 CURVE"
);
}
);
width = 554;
}
);
unicode = 006E;
},
{
glyphname = o;
lastChange = "2019-03-05 05:48:29 +0000";
layers = (
{
layerId = "6AE76F26-A731-4FB1-ABE3-4EB47684FF25";
paths = (
{
closed = 1;
nodes = (
"202 -129 OFFCURVE",
"178 -118 OFFCURVE",
"160 -99 CURVE",
"150 -88 OFFCURVE",
"150 -87 OFFCURVE",
"150 -73 CURVE",
"150 -55 OFFCURVE",
"157 -40 OFFCURVE",
"171 -27 CURVE",
"190 -12 OFFCURVE",
"208 -6 OFFCURVE",
"294 3 CURVE",
"315 6 OFFCURVE",
"322 6 OFFCURVE",
"331 3 CURVE",
"345 0 OFFCURVE",
"360 -13 OFFCURVE",
"358 -19 CURVE",
"357 -22 OFFCURVE",
"342 -36 OFFCURVE",
"324 -51 CURVE",
"300 -70 OFFCURVE",
"292 -79 OFFCURVE",
"294 -81 CURVE",
"295 -82 OFFCURVE",
"315 -84 OFFCURVE",
"349 -84 CURVE",
"417 -84 OFFCURVE",
"468 -76 OFFCURVE",
"636 -48 CURVE",
"688 -39 OFFCURVE",
"739 -33 OFFCURVE",
"825 -27 CURVE",
"876 -24 OFFCURVE",
"886 -24 OFFCURVE",
"910 -27 CURVE",
"973 -37 OFFCURVE",
"1003 -54 OFFCURVE",
"999 -81 CURVE",
"999 -91 OFFCURVE",
"970 -115 OFFCURVE",
"945 -129 CURVE",
"927 -136 OFFCURVE",
"925 -138 OFFCURVE",
"892 -138 CURVE",
"873 -139 OFFCURVE",
"853 -138 OFFCURVE",
"849 -138 CURVE",
"840 -136 OFFCURVE",
"814 -117 OFFCURVE",
"814 -111 CURVE",
"814 -109 OFFCURVE",
"825 -100 OFFCURVE",
"838 -91 CURVE",
"862 -73 LINE",
"834 -75 LINE",
"781 -78 OFFCURVE",
"666 -94 OFFCURVE",
"534 -117 CURVE",
"436 -135 OFFCURVE",
"420 -136 OFFCURVE",
"337 -138 CURVE",
"280 -138 OFFCURVE",
"255 -138 OFFCURVE",
"240 -135 CURVE"
);
},
{
closed = 1;
nodes = (
"636 32 OFFCURVE",
"634 32 OFFCURVE",
"633 38 CURVE",
"633 42 OFFCURVE",
"634 47 OFFCURVE",
"640 54 CURVE",
"645 59 OFFCURVE",
"648 65 OFFCURVE",
"648 68 CURVE",
"648 77 OFFCURVE",
"609 108 OFFCURVE",
"559 138 CURVE",
"550 144 OFFCURVE",
"546 147 OFFCURVE",
"546 152 CURVE",
"546 168 OFFCURVE",
"556 168 OFFCURVE",
"607 152 CURVE",
"660 134 OFFCURVE",
"691 119 OFFCURVE",
"711 101 CURVE",
"730 83 OFFCURVE",
"735 74 OFFCURVE",
"735 51 CURVE",
"735 35 OFFCURVE",
"733 33 OFFCURVE",
"727 29 CURVE",
"718 21 OFFCURVE",
"703 21 OFFCURVE",
"661 27 CURVE"
);
},
{
closed = 1;
nodes = (
"507 47 OFFCURVE",
"492 51 OFFCURVE",
"490 53 CURVE",
"486 56 OFFCURVE",
"487 62 OFFCURVE",
"493 71 CURVE",
"498 75 OFFCURVE",
"501 81 OFFCURVE",
"501 83 CURVE",
"501 92 OFFCURVE",
"448 125 OFFCURVE",
"423 132 CURVE",
"406 138 OFFCURVE",
"402 144 OFFCURVE",
"412 156 CURVE",
"420 164 OFFCURVE",
"424 164 OFFCURVE",
"457 155 CURVE",
"526 138 OFFCURVE",
"562 123 OFFCURVE",
"579 102 CURVE",
"600 80 OFFCURVE",
"603 57 OFFCURVE",
"586 42 CURVE",
"574 32 OFFCURVE",
"558 32 OFFCURVE",
"522 42 CURVE"
);
},
{
closed = 1;
nodes = (
"978 74 OFFCURVE",
"966 86 OFFCURVE",
"966 95 CURVE",
"966 102 OFFCURVE",
"994 134 OFFCURVE",
"1014 146 CURVE",
"1027 155 LINE",
"1044 149 LINE",
"1063 143 OFFCURVE",
"1077 134 OFFCURVE",
"1081 126 CURVE",
"1086 120 OFFCURVE",
"1078 107 OFFCURVE",
"1060 89 CURVE",
"1038 66 OFFCURVE",
"1020 60 OFFCURVE",
"993 69 CURVE"
);
},
{
closed = 1;
nodes = (
"879 114 OFFCURVE",
"871 120 OFFCURVE",
"868 131 CURVE",
"865 140 OFFCURVE",
"867 141 OFFCURVE",
"876 152 CURVE",
"897 176 OFFCURVE",
"919 192 OFFCURVE",
"934 192 CURVE",
"943 192 OFFCURVE",
"975 171 OFFCURVE",
"979 164 CURVE",
"984 156 OFFCURVE",
"979 146 OFFCURVE",
"958 126 CURVE",
"937 105 LINE",
"919 105 LINE",
"910 105 OFFCURVE",
"897 108 OFFCURVE",
"892 110 CURVE"
);
},
{
closed = 1;
nodes = (
"1002 209 OFFCURVE",
"988 210 OFFCURVE",
"958 207 CURVE",
"937 204 OFFCURVE",
"865 204 OFFCURVE",
"774 204 CURVE",
"568 204 OFFCURVE",
"559 206 OFFCURVE",
"511 251 CURVE",
"501 261 OFFCURVE",
"498 266 OFFCURVE",
"498 272 CURVE",
"498 282 OFFCURVE",
"501 284 OFFCURVE",
"522 281 CURVE",
"567 272 OFFCURVE",
"609 272 OFFCURVE",
"813 272 CURVE",
"1023 270 LINE",
"1045 264 LINE",
"1057 261 OFFCURVE",
"1084 249 OFFCURVE",
"1104 240 CURVE",
"1141 221 OFFCURVE",
"1146 216 OFFCURVE",
"1135 204 CURVE",
"1129 198 OFFCURVE",
"1129 198 OFFCURVE",
"1051 206 CURVE"
);
}
);
width = 1290;
}
);
unicode = 006F;
},
{
glyphname = p;
lastChange = "2019-03-05 05:48:29 +0000";
layers = (
{
layerId = "6AE76F26-A731-4FB1-ABE3-4EB47684FF25";
paths = (
{
closed = 1;
nodes = (
"232 -94 OFFCURVE",
"195 -57 OFFCURVE",
"190 -12 CURVE",
"187 4 OFFCURVE",
"195 31 OFFCURVE",
"209 69 CURVE",
"220 98 OFFCURVE",
"224 109 OFFCURVE",
"231 137 CURVE",
"240 164 OFFCURVE",
"241 171 OFFCURVE",
"237 176 CURVE",
"232 181 OFFCURVE",
"232 181 OFFCURVE",
"221 174 CURVE",
"216 172 OFFCURVE",
"210 168 OFFCURVE",
"210 167 CURVE",
"209 166 OFFCURVE",
"204 163 OFFCURVE",
"199 159 CURVE",
"189 153 OFFCURVE",
"171 158 OFFCURVE",
"161 168 CURVE",
"152 178 OFFCURVE",
"152 179 OFFCURVE",
"150 202 CURVE",
"150 223 OFFCURVE",
"150 227 OFFCURVE",
"156 234 CURVE",
"167 249 OFFCURVE",
"175 253 OFFCURVE",
"199 257 CURVE",
"241 262 OFFCURVE",
"265 256 OFFCURVE",
"286 231 CURVE",
"299 216 OFFCURVE",
"307 194 OFFCURVE",
"311 157 CURVE",
"316 111 OFFCURVE",
"309 76 OFFCURVE",
"277 18 CURVE",
"260 -18 OFFCURVE",
"277 -33 OFFCURVE",
"311 -12 CURVE",
"325 -3 OFFCURVE",
"339 -2 OFFCURVE",
"352 -8 CURVE",
"367 -13 OFFCURVE",
"374 -23 OFFCURVE",
"375 -39 CURVE",
"376 -61 OFFCURVE",
"375 -67 OFFCURVE",
"361 -81 CURVE",
"345 -99 OFFCURVE",
"316 -107 OFFCURVE",
"280 -102 CURVE"
);
},
{
closed = 1;
nodes = (
"472 -82 OFFCURVE",
"435 -43 OFFCURVE",
"430 -4 CURVE",
"429 2 OFFCURVE",
"429 17 OFFCURVE",
"430 27 CURVE",
"432 47 OFFCURVE",
"437 64 OFFCURVE",
"464 136 CURVE",
"472 163 OFFCURVE",
"475 188 OFFCURVE",
"467 189 CURVE",
"466 192 OFFCURVE",
"459 187 OFFCURVE",
"451 181 CURVE",
"429 164 OFFCURVE",
"402 167 OFFCURVE",
"392 189 CURVE",
"386 206 OFFCURVE",
"386 229 OFFCURVE",
"392 244 CURVE",
"397 258 OFFCURVE",
"407 263 OFFCURVE",
"431 267 CURVE",
"489 278 OFFCURVE",
"530 251 OFFCURVE",
"542 194 CURVE",
"545 174 OFFCURVE",
"545 131 OFFCURVE",
"541 109 CURVE",
"536 89 OFFCURVE",
"526 54 OFFCURVE",
"514 27 CURVE",
"499 -11 OFFCURVE",
"512 -23 OFFCURVE",
"545 -1 CURVE",
"557 8 OFFCURVE",
"561 8 OFFCURVE",
"572 6 CURVE",
"597 3 OFFCURVE",
"611 -12 OFFCURVE",
"611 -39 CURVE",
"611 -61 OFFCURVE",
"600 -74 OFFCURVE",
"577 -86 CURVE",
"562 -91 OFFCURVE",
"530 -94 OFFCURVE",
"512 -91 CURVE"
);
},
{
closed = 1;
nodes = (
"199 313 OFFCURVE",
"199 323 OFFCURVE",
"211 329 CURVE",
"224 336 OFFCURVE",
"252 364 OFFCURVE",
"249 368 CURVE",
"249 369 OFFCURVE",
"241 371 OFFCURVE",
"234 371 CURVE",
"219 371 OFFCURVE",
"205 378 OFFCURVE",
"205 386 CURVE",
"205 392 OFFCURVE",
"221 419 OFFCURVE",
"231 427 CURVE",
"242 438 OFFCURVE",
"260 442 OFFCURVE",
"274 439 CURVE",
"286 434 OFFCURVE",
"299 421 OFFCURVE",
"302 407 CURVE",
"307 393 OFFCURVE",
"307 389 OFFCURVE",
"301 369 CURVE",
"296 352 OFFCURVE",
"295 349 OFFCURVE",
"276 333 CURVE",
"239 299 OFFCURVE",
"225 293 OFFCURVE",
"210 306 CURVE"
);
},
{
closed = 1;
nodes = (
"417 323 OFFCURVE",
"415 328 OFFCURVE",
"415 329 CURVE",
"415 331 OFFCURVE",
"425 342 OFFCURVE",
"439 354 CURVE",
"452 368 OFFCURVE",
"465 378 OFFCURVE",
"465 378 CURVE",
"465 379 OFFCURVE",
"457 382 OFFCURVE",
"449 382 CURVE",
"429 383 OFFCURVE",
"419 389 OFFCURVE",
"419 399 CURVE",
"419 403 OFFCURVE",
"422 407 OFFCURVE",
"424 408 CURVE",
"425 411 OFFCURVE",
"429 413 OFFCURVE",
"429 414 CURVE",
"429 421 OFFCURVE",
"449 442 OFFCURVE",
"457 446 CURVE",
"470 451 OFFCURVE",
"487 449 OFFCURVE",
"499 443 CURVE",
"512 436 OFFCURVE",
"519 424 OFFCURVE",
"519 404 CURVE",
"519 378 OFFCURVE",
"514 369 OFFCURVE",
"492 347 CURVE",
"457 309 OFFCURVE",
"437 302 OFFCURVE",
"422 319 CURVE"
);
}
);
width = 761;
}
);
unicode = 0070;
},
{
glyphname = q;
lastChange = "2019-03-05 05:48:29 +0000";
layers = (
{
layerId = "6AE76F26-A731-4FB1-ABE3-4EB47684FF25";
paths = (
{
closed = 1;
nodes = (
"370 -651 OFFCURVE",
"363 -648 OFFCURVE",
"363 -641 CURVE SMOOTH",
"363 -639 OFFCURVE",
"367 -623 OFFCURVE",
"373 -608 CURVE SMOOTH",
"390 -565 OFFCURVE",
"385 -559 OFFCURVE",
"339 -513 CURVE SMOOTH",
"291 -464 OFFCURVE",
"268 -428 OFFCURVE",
"260 -388 CURVE SMOOTH",
"256 -366 OFFCURVE",
"257 -324 OFFCURVE",
"264 -285 CURVE SMOOTH",
"265 -279 OFFCURVE",
"264 -279 OFFCURVE",
"244 -299 CURVE SMOOTH",
"211 -331 OFFCURVE",
"174 -349 OFFCURVE",
"141 -340 CURVE SMOOTH",
"97 -327 OFFCURVE",
"88 -284 OFFCURVE",
"118 -233 CURVE SMOOTH",
"142 -193 OFFCURVE",
"202 -143 OFFCURVE",
"241 -143 CURVE SMOOTH",
"251 -143 OFFCURVE",
"263 -151 OFFCURVE",
"274 -164 CURVE",
"280 -172 LINE",
"284 -157 LINE",
"288 -141 OFFCURVE",
"292 -129 OFFCURVE",
"303 -134 CURVE SMOOTH",
"316 -140 OFFCURVE",
"335 -149 OFFCURVE",
"340 -154 CURVE SMOOTH",
"349 -163 OFFCURVE",
"342 -166 OFFCURVE",
"335 -190 CURVE SMOOTH",
"307 -280 OFFCURVE",
"287 -343 OFFCURVE",
"301 -397 CURVE SMOOTH",
"317 -453 OFFCURVE",
"327 -467 OFFCURVE",
"388 -500 CURVE SMOOTH",
"429 -521 OFFCURVE",
"448 -564 OFFCURVE",
"434 -621 CURVE SMOOTH",
"430 -636 OFFCURVE",
"426 -648 OFFCURVE",
"424 -650 CURVE SMOOTH",
"420 -654 OFFCURVE",
"405 -655 OFFCURVE",
"387 -653 CURVE SMOOTH"
);
},
{
closed = 1;
nodes = (
"212 -295 OFFCURVE",
"232 -261 OFFCURVE",
"242 -219 CURVE",
"249 -194 OFFCURVE",
"252 -178 OFFCURVE",
"247 -176 CURVE SMOOTH",
"237 -172 OFFCURVE",
"210 -199 OFFCURVE",
"194 -226 CURVE SMOOTH",
"173 -262 OFFCURVE",
"167 -288 OFFCURVE",
"176 -302 CURVE SMOOTH",
"179 -307 OFFCURVE",
"186 -308 OFFCURVE",
"196 -303 CURVE SMOOTH"
);
}
);
width = 629;
}
);
unicode = 0071;
},
{
glyphname = s;
lastChange = "2019-03-05 05:48:29 +0000";
layers = (
{
layerId = "6AE76F26-A731-4FB1-ABE3-4EB47684FF25";
paths = (
{
closed = 1;
nodes = (
"75 -428 OFFCURVE",
"67 -415 OFFCURVE",
"67 -409 CURVE SMOOTH",
"67 -399 OFFCURVE",
"80 -388 OFFCURVE",
"110 -368 CURVE SMOOTH",
"125 -358 OFFCURVE",
"141 -347 OFFCURVE",
"145 -343 CURVE",
"151 -335 OFFCURVE",
"151 -335 OFFCURVE",
"147 -329 CURVE",
"142 -320 OFFCURVE",
"131 -274 OFFCURVE",
"128 -258 CURVE",
"125 -228 OFFCURVE",
"141 -212 OFFCURVE",
"183 -203 CURVE SMOOTH",
"203 -199 OFFCURVE",
"210 -199 OFFCURVE",
"220 -202 CURVE",
"232 -204 OFFCURVE",
"260 -215 OFFCURVE",
"271 -224 CURVE",
"275 -227 OFFCURVE",
"280 -228 OFFCURVE",
"281 -228 CURVE",
"327 -188 LINE SMOOTH",
"368 -150 OFFCURVE",
"371 -149 OFFCURVE",
"380 -150 CURVE",
"387 -150 OFFCURVE",
"388 -152 OFFCURVE",
"392 -160 CURVE SMOOTH",
"396 -168 OFFCURVE",
"397 -174 OFFCURVE",
"397 -180 CURVE",
"396 -189 LINE",
"348 -220 LINE SMOOTH",
"321 -238 OFFCURVE",
"298 -253 OFFCURVE",
"297 -253 CURVE",
"296 -254 OFFCURVE",
"298 -259 OFFCURVE",
"303 -264 CURVE",
"315 -278 OFFCURVE",
"323 -294 OFFCURVE",
"327 -312 CURVE SMOOTH",
"336 -354 OFFCURVE",
"313 -375 OFFCURVE",
"255 -384 CURVE",
"235 -388 OFFCURVE",
"220 -384 OFFCURVE",
"192 -370 CURVE",
"173 -362 LINE",
"145 -390 LINE SMOOTH",
"108 -427 OFFCURVE",
"95 -438 OFFCURVE",
"91 -438 CURVE SMOOTH",
"90 -438 OFFCURVE",
"86 -437 OFFCURVE",
"82 -434 CURVE"
);
},
{
closed = 1;
nodes = (
"262 -324 OFFCURVE",
"273 -310 OFFCURVE",
"273 -288 CURVE SMOOTH",
"273 -264 OFFCURVE",
"260 -250 OFFCURVE",
"236 -250 CURVE SMOOTH",
"206 -250 OFFCURVE",
"181 -273 OFFCURVE",
"181 -302 CURVE SMOOTH",
"181 -315 OFFCURVE",
"187 -327 OFFCURVE",
"195 -330 CURVE",
"198 -333 OFFCURVE",
"210 -335 OFFCURVE",
"220 -338 CURVE",
"221 -338 OFFCURVE",
"228 -335 OFFCURVE",
"236 -333 CURVE"
);
}
);
width = 594;
}
);
unicode = 0073;
},
{
glyphname = u;
lastChange = "2019-03-05 05:48:29 +0000";
layers = (
{
layerId = "6AE76F26-A731-4FB1-ABE3-4EB47684FF25";
paths = (
{
closed = 1;
nodes = (
"114 -607 OFFCURVE",
"98 -592 OFFCURVE",
"100 -557 CURVE SMOOTH",
"102 -528 OFFCURVE",
"110 -509 OFFCURVE",
"132 -483 CURVE SMOOTH",
"156 -455 OFFCURVE",
"208 -419 OFFCURVE",
"263 -401 CURVE SMOOTH",
"272 -398 OFFCURVE",
"278 -394 OFFCURVE",
"278 -393 CURVE SMOOTH",
"278 -392 OFFCURVE",
"271 -381 OFFCURVE",
"264 -372 CURVE SMOOTH",
"228 -325 OFFCURVE",
"192 -266 OFFCURVE",
"205 -227 CURVE SMOOTH",
"225 -174 OFFCURVE",
"280 -156 OFFCURVE",
"331 -173 CURVE SMOOTH",
"415 -198 OFFCURVE",
"458 -278 OFFCURVE",
"461 -385 CURVE SMOOTH",
"461 -420 OFFCURVE",
"461 -428 OFFCURVE",
"458 -448 CURVE SMOOTH",
"456 -461 OFFCURVE",
"455 -472 OFFCURVE",
"455 -472 CURVE",
"456 -473 OFFCURVE",
"466 -473 OFFCURVE",
"479 -473 CURVE SMOOTH",
"501 -473 OFFCURVE",
"502 -474 OFFCURVE",
"515 -480 CURVE SMOOTH",
"522 -483 OFFCURVE",
"532 -490 OFFCURVE",
"537 -494 CURVE SMOOTH",
"566 -517 OFFCURVE",
"585 -565 OFFCURVE",
"579 -593 CURVE SMOOTH",
"576 -605 OFFCURVE",
"572 -614 OFFCURVE",
"567 -614 CURVE SMOOTH",
"565 -614 OFFCURVE",
"554 -610 OFFCURVE",
"541 -606 CURVE",
"518 -598 LINE",
"518 -589 LINE SMOOTH",
"519 -554 OFFCURVE",
"518 -548 OFFCURVE",
"516 -541 CURVE SMOOTH",
"509 -516 OFFCURVE",
"488 -507 OFFCURVE",
"448 -505 CURVE SMOOTH",
"424 -504 LINE",
"425 -499 LINE",
"431 -457 OFFCURVE",
"419 -397 OFFCURVE",
"391 -326 CURVE SMOOTH",
"372 -278 OFFCURVE",
"337 -229 OFFCURVE",
"304 -230 CURVE SMOOTH",
"288 -230 OFFCURVE",
"273 -250 OFFCURVE",
"273 -277 CURVE SMOOTH",
"273 -291 OFFCURVE",
"274 -298 OFFCURVE",
"277 -306 CURVE",
"284 -327 OFFCURVE",
"304 -357 OFFCURVE",
"339 -400 CURVE SMOOTH",
"360 -425 OFFCURVE",
"372 -444 OFFCURVE",
"364 -481 CURVE SMOOTH",
"348 -552 OFFCURVE",
"299 -596 OFFCURVE",
"231 -614 CURVE SMOOTH",
"210 -619 OFFCURVE",
"177 -620 OFFCURVE",
"156 -616 CURVE"
);
},
{
closed = 1;
nodes = (
"295 -526 OFFCURVE",
"314 -470 CURVE SMOOTH",
"323 -441 OFFCURVE",
"321 -431 OFFCURVE",
"306 -431 CURVE SMOOTH",
"284 -431 OFFCURVE",
"233 -489 OFFCURVE",
"210 -522 CURVE SMOOTH",
"200 -536 OFFCURVE",
"192 -565 OFFCURVE",
"212 -579 CURVE SMOOTH",
"241 -599 OFFCURVE"
);
}
);
width = 680;
}
);
unicode = 0075;
},
{
glyphname = v;
lastChange = "2019-03-05 05:48:29 +0000";
layers = (
{
components = (
{
name = ex;
transform = "{1, 0, 0, 1, 220, 0}";
}
);
layerId = "6AE76F26-A731-4FB1-ABE3-4EB47684FF25";
paths = (
{
closed = 1;
nodes = (
"306 241 OFFCURVE",
"299 245 OFFCURVE",
"296 248 CURVE",
"291 253 LINE",
"295 309 LINE",
"298 340 OFFCURVE",
"300 367 OFFCURVE",
"300 369 CURVE",
"300 372 OFFCURVE",
"297 372 OFFCURVE",
"256 372 CURVE",
"231 372 OFFCURVE",
"204 371 OFFCURVE",
"195 370 CURVE",
"146 365 OFFCURVE",
"134 366 OFFCURVE",
"125 375 CURVE",
"121 379 OFFCURVE",
"120 380 OFFCURVE",
"121 391 CURVE",
"123 404 OFFCURVE",
"126 412 OFFCURVE",
"134 417 CURVE",
"138 421 OFFCURVE",
"141 421 OFFCURVE",
"154 420 CURVE",
"183 419 OFFCURVE",
"275 419 OFFCURVE",
"331 421 CURVE",
"387 423 LINE",
"390 418 LINE",
"395 412 OFFCURVE",
"394 400 OFFCURVE",
"387 387 CURVE",
"380 370 OFFCURVE",
"375 347 OFFCURVE",
"373 311 CURVE",
"371 267 OFFCURVE",
"366 254 OFFCURVE",
"346 240 CURVE",
"335 233 OFFCURVE",
"329 233 OFFCURVE",
"313 239 CURVE"
);
}
);
width = 593;
}
);
unicode = 0076;
},
{
glyphname = w;
lastChange = "2019-03-05 05:48:29 +0000";
layers = (
{
layerId = "6AE76F26-A731-4FB1-ABE3-4EB47684FF25";
paths = (
{
closed = 1;
nodes = (
"334 -497 OFFCURVE",
"296 -475 OFFCURVE",
"268 -445 CURVE SMOOTH",
"255 -431 OFFCURVE",
"238 -408 OFFCURVE",
"230 -393 CURVE SMOOTH",
"228 -389 OFFCURVE",
"226 -385 OFFCURVE",
"224 -381 CURVE",
"209 -409 LINE SMOOTH",
"181 -461 OFFCURVE",
"170 -485 OFFCURVE",
"146 -485 CURVE SMOOTH",
"131 -485 OFFCURVE",
"107 -480 OFFCURVE",
"102 -478 CURVE",
"98 -476 OFFCURVE",
"100 -468 OFFCURVE",
"112 -453 CURVE SMOOTH",
"151 -402 OFFCURVE",
"185 -335 OFFCURVE",
"192 -301 CURVE SMOOTH",
"195 -286 OFFCURVE",
"180 -241 OFFCURVE",
"161 -217 CURVE SMOOTH",
"146 -198 OFFCURVE",
"132 -191 OFFCURVE",
"98 -178 CURVE SMOOTH",
"81 -171 OFFCURVE",
"77 -173 OFFCURVE",
"77 -162 CURVE SMOOTH",
"77 -154 OFFCURVE",
"84 -149 OFFCURVE",
"101 -146 CURVE SMOOTH",
"121 -143 OFFCURVE",
"136 -145 OFFCURVE",
"156 -155 CURVE SMOOTH",
"233 -194 OFFCURVE",
"246 -244 OFFCURVE",
"284 -332 CURVE SMOOTH",
"299 -365 OFFCURVE",
"299 -372 OFFCURVE",
"299 -341 CURVE SMOOTH",
"299 -332 OFFCURVE",
"299 -312 OFFCURVE",
"309 -313 CURVE SMOOTH",
"376 -320 LINE SMOOTH",
"398 -322 OFFCURVE",
"441 -324 OFFCURVE",
"443 -325 CURVE",
"454 -330 OFFCURVE",
"449 -354 OFFCURVE",
"443 -357 CURVE",
"440 -358 OFFCURVE",
"352 -352 OFFCURVE",
"351 -353 CURVE SMOOTH",
"348 -356 OFFCURVE",
"354 -420 OFFCURVE",
"357 -434 CURVE SMOOTH",
"361 -453 OFFCURVE",
"366 -459 OFFCURVE",
"376 -464 CURVE SMOOTH",
"402 -477 OFFCURVE",
"412 -487 OFFCURVE",
"399 -500 CURVE SMOOTH",
"396 -503 OFFCURVE",
"387 -504 OFFCURVE",
"373 -502 CURVE SMOOTH"
);
}
);
width = 609;
}
);
unicode = 0077;
},
{
glyphname = x;
lastChange = "2019-03-05 05:48:29 +0000";
layers = (
{
components = (
{
name = ex;
transform = "{1, 0, 0, 1, 370, 0}";
}
);
layerId = "6AE76F26-A731-4FB1-ABE3-4EB47684FF25";
paths = (
{
closed = 1;
nodes = (
"489 243 OFFCURVE",
"483 242 OFFCURVE",
"467 250 CURVE",
"443 258 OFFCURVE",
"443 256 OFFCURVE",
"448 314 CURVE",
"449 342 OFFCURVE",
"453 366 OFFCURVE",
"453 371 CURVE",
"453 376 LINE",
"425 376 LINE",
"408 376 OFFCURVE",
"376 375 OFFCURVE",
"351 374 CURVE",
"300 372 OFFCURVE",
"289 372 OFFCURVE",
"285 381 CURVE",
"282 386 OFFCURVE",
"282 390 OFFCURVE",
"285 433 CURVE",
"287 460 OFFCURVE",
"289 486 OFFCURVE",
"289 493 CURVE",
"291 504 LINE",
"211 502 LINE",
"116 501 OFFCURVE",
"119 501 OFFCURVE",
"120 524 CURVE",
"123 535 OFFCURVE",
"125 540 OFFCURVE",
"130 545 CURVE",
"138 552 LINE",
"256 553 LINE",
"375 553 LINE",
"379 549 LINE",
"383 542 OFFCURVE",
"382 533 OFFCURVE",
"376 518 CURVE",
"368 502 OFFCURVE",
"364 484 OFFCURVE",
"362 447 CURVE",
"361 423 LINE",
"449 424 LINE",
"537 425 LINE",
"541 420 LINE",
"546 411 OFFCURVE",
"546 405 OFFCURVE",
"541 397 CURVE",
"530 381 OFFCURVE",
"526 361 OFFCURVE",
"524 321 CURVE",
"522 279 OFFCURVE",
"517 264 OFFCURVE",
"499 252 CURVE"
);
}
);
width = 739;
}
);
unicode = 0078;
},
{
glyphname = y;
lastChange = "2019-03-05 05:48:29 +0000";
layers = (
{
layerId = "6AE76F26-A731-4FB1-ABE3-4EB47684FF25";
paths = (
{
closed = 1;
nodes = (
"366 -514 OFFCURVE",
"361 -511 OFFCURVE",
"358 -508 CURVE SMOOTH",
"355 -505 OFFCURVE",
"354 -503 OFFCURVE",
"355 -498 CURVE",
"355 -495 OFFCURVE",
"356 -490 OFFCURVE",
"358 -485 CURVE SMOOTH",
"363 -472 OFFCURVE",
"364 -460 OFFCURVE",
"363 -430 CURVE SMOOTH",
"362 -397 OFFCURVE",
"361 -388 OFFCURVE",
"349 -365 CURVE",
"337 -339 OFFCURVE",
"318 -316 OFFCURVE",
"291 -295 CURVE",
"283 -288 OFFCURVE",
"275 -282 OFFCURVE",
"273 -281 CURVE",
"271 -281 OFFCURVE",
"266 -285 OFFCURVE",
"228 -318 CURVE SMOOTH",
"185 -355 LINE",
"166 -355 LINE SMOOTH",
"140 -355 OFFCURVE",
"131 -352 OFFCURVE",
"120 -341 CURVE",
"105 -328 OFFCURVE",
"100 -314 OFFCURVE",
"100 -287 CURVE SMOOTH",
"100 -262 OFFCURVE",
"108 -225 OFFCURVE",
"114 -216 CURVE SMOOTH",
"116 -213 OFFCURVE",
"118 -213 OFFCURVE",
"147 -211 CURVE SMOOTH",
"175 -210 OFFCURVE",
"177 -210 OFFCURVE",
"179 -212 CURVE SMOOTH",
"182 -215 OFFCURVE",
"181 -215 OFFCURVE",
"173 -252 CURVE SMOOTH",
"164 -289 LINE",
"166 -295 LINE",
"173 -304 LINE",
"178 -308 OFFCURVE",
"188 -308 OFFCURVE",
"199 -301 CURVE",
"211 -292 OFFCURVE",
"235 -270 OFFCURVE",
"262 -241 CURVE SMOOTH",
"288 -214 OFFCURVE",
"288 -213 OFFCURVE",
"295 -211 CURVE",
"302 -210 OFFCURVE",
"303 -210 OFFCURVE",
"311 -215 CURVE",
"327 -222 OFFCURVE",
"341 -232 OFFCURVE",
"355 -248 CURVE",
"371 -264 OFFCURVE",
"380 -275 OFFCURVE",
"392 -295 CURVE SMOOTH",
"402 -311 OFFCURVE",
"406 -324 OFFCURVE",
"413 -358 CURVE SMOOTH",
"420 -391 OFFCURVE",
"421 -400 OFFCURVE",
"418 -419 CURVE",
"418 -438 LINE",
"419 -443 OFFCURVE",
"425 -440 OFFCURVE",
"445 -424 CURVE SMOOTH",
"481 -395 OFFCURVE",
"503 -375 OFFCURVE",
"534 -345 CURVE SMOOTH",
"570 -308 OFFCURVE",
"585 -291 OFFCURVE",
"586 -282 CURVE",
"587 -278 OFFCURVE",
"588 -271 OFFCURVE",
"591 -265 CURVE",
"593 -256 OFFCURVE",
"595 -252 OFFCURVE",
"600 -248 CURVE",
"605 -242 LINE",
"616 -242 LINE SMOOTH",
"630 -242 OFFCURVE",
"636 -244 OFFCURVE",
"641 -249 CURVE SMOOTH",
"645 -253 OFFCURVE",
"645 -255 OFFCURVE",
"646 -264 CURVE",
"646 -275 OFFCURVE",
"646 -275 OFFCURVE",
"641 -285 CURVE",
"631 -301 OFFCURVE",
"619 -315 OFFCURVE",
"598 -333 CURVE",
"591 -338 OFFCURVE",
"575 -353 OFFCURVE",
"560 -368 CURVE",
"501 -422 OFFCURVE",
"443 -472 OFFCURVE",
"398 -507 CURVE SMOOTH",
"385 -517 OFFCURVE",
"382 -517 OFFCURVE",
"370 -515 CURVE"
);
}
);
width = 746;
}
);
unicode = 0079;
},
{
glyphname = z;
lastChange = "2019-03-05 05:48:29 +0000";
layers = (
{
components = (
{
name = ex;
transform = "{1, 0, 0, 1, 540, 0}";
}
);
layerId = "6AE76F26-A731-4FB1-ABE3-4EB47684FF25";
paths = (
{
closed = 1;
nodes = (
"706 425 LINE",
"530 423 LINE",
"531 447 LINE SMOOTH",
"533 484 OFFCURVE",
"537 502 OFFCURVE",
"545 518 CURVE",
"551 533 OFFCURVE",
"552 542 OFFCURVE",
"548 549 CURVE",
"544 553 LINE",
"370 553 LINE",
"371 560 OFFCURVE",
"371 570 OFFCURVE",
"372 581 CURVE",
"374 617 OFFCURVE",
"379 640 OFFCURVE",
"386 657 CURVE",
"393 670 OFFCURVE",
"394 682 OFFCURVE",
"389 688 CURVE",
"386 693 LINE",
"330 691 LINE SMOOTH",
"274 689 OFFCURVE",
"182 689 OFFCURVE",
"153 690 CURVE",
"140 691 OFFCURVE",
"137 691 OFFCURVE",
"133 687 CURVE",
"125 682 OFFCURVE",
"122 674 OFFCURVE",
"120 661 CURVE",
"119 650 OFFCURVE",
"120 649 OFFCURVE",
"124 645 CURVE SMOOTH",
"133 636 OFFCURVE",
"145 635 OFFCURVE",
"194 640 CURVE SMOOTH",
"203 641 OFFCURVE",
"230 642 OFFCURVE",
"255 642 CURVE SMOOTH",
"296 642 OFFCURVE",
"299 642 OFFCURVE",
"299 639 CURVE SMOOTH",
"299 637 OFFCURVE",
"297 610 OFFCURVE",
"294 579 CURVE SMOOTH",
"290 529 LINE",
"290 527 OFFCURVE",
"289 526 OFFCURVE",
"289 524 CURVE",
"288 501 OFFCURVE",
"285 501 OFFCURVE",
"380 502 CURVE SMOOTH",
"460 504 LINE",
"458 493 LINE",
"458 486 OFFCURVE",
"456 460 OFFCURVE",
"454 433 CURVE SMOOTH",
"451 390 OFFCURVE",
"451 386 OFFCURVE",
"454 381 CURVE",
"458 372 OFFCURVE",
"469 372 OFFCURVE",
"520 374 CURVE SMOOTH",
"545 375 OFFCURVE",
"577 376 OFFCURVE",
"594 376 CURVE SMOOTH",
"622 376 LINE",
"622 371 LINE SMOOTH",
"622 366 OFFCURVE",
"618 342 OFFCURVE",
"617 314 CURVE",
"612 256 OFFCURVE",
"612 258 OFFCURVE",
"636 250 CURVE",
"652 242 OFFCURVE",
"658 243 OFFCURVE",
"668 252 CURVE",
"686 264 OFFCURVE",
"691 279 OFFCURVE",
"693 321 CURVE SMOOTH",
"695 361 OFFCURVE",
"699 381 OFFCURVE",
"710 397 CURVE",
"715 405 OFFCURVE",
"715 411 OFFCURVE",
"710 420 CURVE"
);
}
);
width = 908;
}
);
unicode = 007A;
},
{
glyphname = pi;
lastChange = "2019-03-05 05:48:29 +0000";
layers = (
{
layerId = "6AE76F26-A731-4FB1-ABE3-4EB47684FF25";
paths = (
{
closed = 1;
nodes = (
"1117 269 OFFCURVE",
"1072 272 OFFCURVE",
"1029 275 CURVE",
"985 278 OFFCURVE",
"878 279 OFFCURVE",
"838 276 CURVE",
"809 274 OFFCURVE",
"663 271 OFFCURVE",
"576 271 CURVE",
"527 271 OFFCURVE",
"505 272 OFFCURVE",
"474 274 CURVE",
"400 280 OFFCURVE",
"362 286 OFFCURVE",
"354 291 CURVE",
"352 292 OFFCURVE",
"347 295 OFFCURVE",
"344 296 CURVE",
"337 299 OFFCURVE",
"319 311 OFFCURVE",
"305 321 CURVE",
"297 327 OFFCURVE",
"295 329 OFFCURVE",
"295 333 CURVE",
"295 335 OFFCURVE",
"296 338 OFFCURVE",
"298 340 CURVE",
"301 343 OFFCURVE",
"302 342 OFFCURVE",
"322 339 CURVE",
"370 330 OFFCURVE",
"371 330 OFFCURVE",
"484 329 CURVE",
"542 328 OFFCURVE",
"621 329 OFFCURVE",
"660 330 CURVE",
"775 333 OFFCURVE",
"950 334 OFFCURVE",
"972 332 CURVE",
"1029 326 OFFCURVE",
"1109 301 OFFCURVE",
"1136 279 CURVE",
"1142 274 OFFCURVE",
"1143 272 OFFCURVE",
"1140 268 CURVE",
"1139 266 OFFCURVE",
"1137 266 OFFCURVE",
"1130 267 CURVE"
);
},
{
closed = 1;
nodes = (
"630 -6 OFFCURVE",
"618 6 OFFCURVE",
"618 15 CURVE",
"618 22 OFFCURVE",
"646 54 OFFCURVE",
"666 66 CURVE",
"679 75 LINE",
"696 69 LINE",
"715 63 OFFCURVE",
"729 54 OFFCURVE",
"733 46 CURVE",
"738 40 OFFCURVE",
"730 27 OFFCURVE",
"712 9 CURVE",
"690 -14 OFFCURVE",
"672 -20 OFFCURVE",
"645 -11 CURVE"
);
},
{
closed = 1;
nodes = (
"531 34 OFFCURVE",
"523 40 OFFCURVE",
"520 51 CURVE",
"517 60 OFFCURVE",
"519 61 OFFCURVE",
"528 72 CURVE",
"549 96 OFFCURVE",
"571 112 OFFCURVE",
"586 112 CURVE",
"595 112 OFFCURVE",
"627 91 OFFCURVE",
"631 84 CURVE",
"636 76 OFFCURVE",
"631 66 OFFCURVE",
"610 46 CURVE",
"589 25 LINE",
"571 25 LINE",
"562 25 OFFCURVE",
"549 28 OFFCURVE",
"544 30 CURVE"
);
},
{
closed = 1;
nodes = (
"654 129 OFFCURVE",
"640 130 OFFCURVE",
"610 127 CURVE",
"589 124 OFFCURVE",
"517 124 OFFCURVE",
"426 124 CURVE",
"220 124 OFFCURVE",
"211 126 OFFCURVE",
"163 171 CURVE",
"153 181 OFFCURVE",
"150 186 OFFCURVE",
"150 192 CURVE",
"150 202 OFFCURVE",
"153 204 OFFCURVE",
"174 201 CURVE",
"219 192 OFFCURVE",
"261 192 OFFCURVE",
"465 192 CURVE",
"675 190 LINE",
"697 184 LINE",
"709 181 OFFCURVE",
"736 169 OFFCURVE",
"756 160 CURVE",
"793 141 OFFCURVE",
"798 136 OFFCURVE",
"787 124 CURVE",
"781 118 OFFCURVE",
"781 118 OFFCURVE",
"703 126 CURVE"
);
},
{
closed = 1;
nodes = (
"228 -127 OFFCURVE",
"222 -127 OFFCURVE",
"211 -120 CURVE",
"191 -106 OFFCURVE",
"186 -93 OFFCURVE",
"184 -49 CURVE",
"182 -13 OFFCURVE",
"177 10 OFFCURVE",
"170 27 CURVE",
"163 40 OFFCURVE",
"162 52 OFFCURVE",
"167 58 CURVE",
"170 63 LINE",
"226 61 LINE",
"282 59 OFFCURVE",
"374 59 OFFCURVE",
"403 60 CURVE",
"416 61 OFFCURVE",
"419 61 OFFCURVE",
"423 57 CURVE",
"431 52 OFFCURVE",
"434 44 OFFCURVE",
"436 31 CURVE",
"437 20 OFFCURVE",
"436 19 OFFCURVE",
"432 15 CURVE",
"423 6 OFFCURVE",
"411 5 OFFCURVE",
"362 10 CURVE",
"353 11 OFFCURVE",
"326 12 OFFCURVE",
"301 12 CURVE",
"260 12 OFFCURVE",
"257 12 OFFCURVE",
"257 9 CURVE",
"257 7 OFFCURVE",
"259 -20 OFFCURVE",
"262 -51 CURVE",
"266 -107 LINE",
"261 -112 LINE",
"258 -115 OFFCURVE",
"251 -119 OFFCURVE",
"244 -121 CURVE"
);
},
{
closed = 1;
nodes = (
"989 115 OFFCURVE",
"985 115 OFFCURVE",
"972 118 CURVE",
"963 118 OFFCURVE",
"958 120 OFFCURVE",
"952 123 CURVE",
"938 130 OFFCURVE",
"939 133 OFFCURVE",
"926 149 CURVE",
"920 158 OFFCURVE",
"921 154 OFFCURVE",
"914 174 CURVE",
"913 178 OFFCURVE",
"911 182 OFFCURVE",
"911 182 CURVE",
"911 186 OFFCURVE",
"905 197 OFFCURVE",
"899 203 CURVE",
"892 210 OFFCURVE",
"890 215 OFFCURVE",
"892 221 CURVE",
"894 227 OFFCURVE",
"899 230 OFFCURVE",
"908 230 CURVE",
"929 230 OFFCURVE",
"959 227 OFFCURVE",
"963 227 CURVE",
"968 226 OFFCURVE",
"978 218 OFFCURVE",
"984 210 CURVE",
"985 208 OFFCURVE",
"986 207 OFFCURVE",
"987 204 CURVE",
"989 202 OFFCURVE",
"991 197 OFFCURVE",
"992 194 CURVE",
"994 190 OFFCURVE",
"998 180 OFFCURVE",
"1003 171 CURVE",
"1013 154 OFFCURVE",
"1016 150 OFFCURVE",
"1028 149 CURVE",
"1031 148 OFFCURVE",
"1034 148 OFFCURVE",
"1037 145 CURVE",
"1041 143 OFFCURVE",
"1042 142 OFFCURVE",
"1042 137 CURVE",
"1042 132 OFFCURVE",
"1039 128 OFFCURVE",
"1026 122 CURVE",
"1015 117 OFFCURVE",
"1013 116 OFFCURVE",
"999 115 CURVE"
);
},
{
closed = 1;
nodes = (
"1132 115 OFFCURVE",
"1128 115 OFFCURVE",
"1115 118 CURVE",
"1107 118 OFFCURVE",
"1101 120 OFFCURVE",
"1095 123 CURVE",
"1082 130 OFFCURVE",
"1082 133 OFFCURVE",
"1069 149 CURVE",
"1063 158 OFFCURVE",
"1065 154 OFFCURVE",
"1058 174 CURVE",
"1056 178 OFFCURVE",
"1054 182 OFFCURVE",
"1054 182 CURVE",
"1054 186 OFFCURVE",
"1048 197 OFFCURVE",
"1042 203 CURVE",
"1035 210 OFFCURVE",
"1033 215 OFFCURVE",
"1035 221 CURVE",
"1037 227 OFFCURVE",
"1042 230 OFFCURVE",
"1052 230 CURVE",
"1073 230 OFFCURVE",
"1103 227 OFFCURVE",
"1107 227 CURVE",
"1111 226 OFFCURVE",
"1121 218 OFFCURVE",
"1127 210 CURVE",
"1129 208 OFFCURVE",
"1129 207 OFFCURVE",
"1131 204 CURVE",
"1132 202 OFFCURVE",
"1134 197 OFFCURVE",
"1136 194 CURVE",
"1138 190 OFFCURVE",
"1142 180 OFFCURVE",
"1146 171 CURVE",
"1156 154 OFFCURVE",
"1159 150 OFFCURVE",
"1171 149 CURVE",
"1174 148 OFFCURVE",
"1177 148 OFFCURVE",
"1181 145 CURVE",
"1185 143 OFFCURVE",
"1185 142 OFFCURVE",
"1185 137 CURVE",
"1185 132 OFFCURVE",
"1183 128 OFFCURVE",
"1170 122 CURVE",
"1158 117 OFFCURVE",
"1156 116 OFFCURVE",
"1142 115 CURVE"
);
}
);
width = 1383;
}
);
unicode = 03C0;
},
{
glyphname = one;
lastChange = "2019-03-05 05:48:29 +0000";
layers = (
{
layerId = "6AE76F26-A731-4FB1-ABE3-4EB47684FF25";
paths = (
{
closed = 1;
nodes = (
"341 -490 OFFCURVE",
"325 -475 OFFCURVE",
"316 -455 CURVE",
"308 -439 OFFCURVE",
"306 -409 OFFCURVE",
"307 -361 CURVE SMOOTH",
"308 -321 LINE",
"274 -321 LINE",
"273 -336 LINE",
"272 -343 OFFCURVE",
"271 -367 OFFCURVE",
"271 -392 CURVE",
"269 -438 OFFCURVE",
"267 -450 OFFCURVE",
"260 -465 CURVE",
"252 -480 OFFCURVE",
"246 -483 OFFCURVE",
"220 -484 CURVE SMOOTH",
"200 -485 OFFCURVE",
"197 -484 OFFCURVE",
"195 -482 CURVE",
"195 -480 OFFCURVE",
"198 -463 OFFCURVE",
"203 -445 CURVE",
"212 -406 OFFCURVE",
"221 -354 OFFCURVE",
"221 -339 CURVE SMOOTH",
"221 -322 OFFCURVE",
"220 -321 OFFCURVE",
"180 -321 CURVE SMOOTH",
"144 -321 LINE",
"144 -326 LINE SMOOTH",
"144 -337 OFFCURVE",
"141 -339 OFFCURVE",
"125 -338 CURVE SMOOTH",
"105 -337 OFFCURVE",
"100 -333 OFFCURVE",
"100 -319 CURVE SMOOTH",
"100 -307 OFFCURVE",
"104 -298 OFFCURVE",
"110 -292 CURVE SMOOTH",
"115 -287 LINE",
"282 -287 LINE SMOOTH",
"468 -287 OFFCURVE",
"453 -285 OFFCURVE",
"455 -303 CURVE",
"457 -310 OFFCURVE",
"455 -313 OFFCURVE",
"452 -316 CURVE SMOOTH",
"447 -321 OFFCURVE",
"444 -321 OFFCURVE",
"413 -322 CURVE SMOOTH",
"379 -322 LINE",
"378 -344 LINE SMOOTH",
"375 -386 OFFCURVE",
"381 -432 OFFCURVE",
"395 -465 CURVE SMOOTH",
"403 -485 OFFCURVE",
"402 -491 OFFCURVE",
"392 -496 CURVE",
"381 -501 OFFCURVE",
"378 -502 OFFCURVE",
"367 -499 CURVE"
);
}
);
width = 556;
}
);
unicode = 0031;
},
{
glyphname = two;
lastChange = "2019-03-05 05:48:29 +0000";
layers = (
{
layerId = "6AE76F26-A731-4FB1-ABE3-4EB47684FF25";
paths = (
{
closed = 1;
nodes = (
"256 -548 OFFCURVE",
"269 -543 OFFCURVE",
"277 -535 CURVE SMOOTH",
"285 -527 OFFCURVE",
"292 -513 OFFCURVE",
"294 -502 CURVE",
"298 -485 OFFCURVE",
"297 -481 OFFCURVE",
"285 -451 CURVE",
"272 -425 OFFCURVE",
"272 -424 OFFCURVE",
"260 -412 CURVE",
"253 -407 OFFCURVE",
"239 -395 OFFCURVE",
"229 -387 CURVE",
"218 -380 OFFCURVE",
"210 -372 OFFCURVE",
"210 -371 CURVE SMOOTH",
"210 -369 OFFCURVE",
"230 -366 OFFCURVE",
"252 -363 CURVE SMOOTH",
"279 -359 OFFCURVE",
"294 -344 OFFCURVE",
"302 -314 CURVE",
"308 -285 OFFCURVE",
"298 -262 OFFCURVE",
"272 -249 CURVE SMOOTH",
"233 -230 OFFCURVE",
"191 -235 OFFCURVE",
"165 -262 CURVE",
"154 -272 OFFCURVE",
"143 -292 OFFCURVE",
"138 -308 CURVE",
"136 -313 OFFCURVE",
"134 -319 OFFCURVE",
"132 -320 CURVE",
"132 -321 OFFCURVE",
"126 -324 OFFCURVE",
"119 -326 CURVE SMOOTH",
"104 -330 OFFCURVE",
"100 -333 OFFCURVE",
"100 -342 CURVE SMOOTH",
"100 -346 OFFCURVE",
"102 -350 OFFCURVE",
"103 -353 CURVE",
"107 -359 OFFCURVE",
"118 -367 OFFCURVE",
"129 -370 CURVE",
"136 -373 OFFCURVE",
"138 -375 OFFCURVE",
"136 -377 CURVE",
"135 -379 OFFCURVE",
"134 -391 OFFCURVE",
"134 -418 CURVE SMOOTH",
"134 -453 OFFCURVE",
"134 -461 OFFCURVE",
"138 -485 CURVE SMOOTH",
"143 -513 OFFCURVE",
"148 -527 OFFCURVE",
"158 -542 CURVE SMOOTH",
"168 -556 OFFCURVE",
"171 -557 OFFCURVE",
"196 -557 CURVE SMOOTH",
"213 -557 OFFCURVE",
"221 -556 OFFCURVE",
"235 -553 CURVE SMOOTH"
);
},
{
closed = 1;
nodes = (
"194 -493 OFFCURVE",
"192 -488 OFFCURVE",
"192 -485 CURVE",
"190 -475 OFFCURVE",
"190 -426 OFFCURVE",
"192 -424 CURVE",
"195 -422 OFFCURVE",
"201 -426 OFFCURVE",
"211 -434 CURVE",
"225 -447 OFFCURVE",
"229 -457 OFFCURVE",
"230 -477 CURVE SMOOTH",
"231 -491 OFFCURVE",
"231 -493 OFFCURVE",
"227 -496 CURVE",
"224 -500 OFFCURVE",
"222 -500 OFFCURVE",
"212 -500 CURVE SMOOTH",
"200 -500 OFFCURVE",
"199 -500 OFFCURVE",
"196 -496 CURVE"
);
},
{
closed = 1;
nodes = (
"156 -323 OFFCURVE",
"158 -317 OFFCURVE",
"163 -312 CURVE",
"170 -306 OFFCURVE",
"174 -299 OFFCURVE",
"198 -291 CURVE",
"216 -286 OFFCURVE",
"221 -285 OFFCURVE",
"232 -285 CURVE SMOOTH",
"244 -285 OFFCURVE",
"244 -285 OFFCURVE",
"250 -290 CURVE",
"256 -298 OFFCURVE",
"257 -302 OFFCURVE",
"253 -307 CURVE",
"250 -315 OFFCURVE",
"236 -321 OFFCURVE",
"219 -324 CURVE SMOOTH",
"205 -326 OFFCURVE",
"161 -327 OFFCURVE",
"159 -325 CURVE"
);
}
);
width = 404;
}
);
unicode = 0032;
},
{
glyphname = three;
lastChange = "2019-03-05 05:48:29 +0000";
layers = (
{
layerId = "6AE76F26-A731-4FB1-ABE3-4EB47684FF25";
paths = (
{
closed = 1;
nodes = (
"128 -522 OFFCURVE",
"117 -520 OFFCURVE",
"114 -515 CURVE",
"110 -511 OFFCURVE",
"109 -484 OFFCURVE",
"107 -409 CURVE",
"107 -311 OFFCURVE",
"105 -310 OFFCURVE",
"97 -299 CURVE",
"89 -289 OFFCURVE",
"86 -277 OFFCURVE",
"93 -266 CURVE",
"97 -263 OFFCURVE",
"107 -263 OFFCURVE",
"164 -264 CURVE",
"200 -266 OFFCURVE",
"245 -266 OFFCURVE",
"263 -266 CURVE",
"290 -268 OFFCURVE",
"296 -268 OFFCURVE",
"304 -277 CURVE",
"309 -280 OFFCURVE",
"315 -289 OFFCURVE",
"315 -296 CURVE",
"317 -305 OFFCURVE",
"317 -308 OFFCURVE",
"304 -313 CURVE",
"295 -320 OFFCURVE",
"286 -320 OFFCURVE",
"238 -318 CURVE SMOOTH",
"184 -316 LINE",
"185 -415 LINE",
"190 -520 OFFCURVE",
"188 -525 OFFCURVE",
"173 -525 CURVE",
"171 -523 OFFCURVE",
"157 -523 OFFCURVE",
"144 -523 CURVE"
);
}
);
width = 405;
}
);
unicode = 0033;
},
{
glyphname = four;
lastChange = "2019-03-05 05:48:29 +0000";
layers = (
{
layerId = "6AE76F26-A731-4FB1-ABE3-4EB47684FF25";
paths = (
{
closed = 1;
nodes = (
"99 -505 OFFCURVE",
"97 -500 OFFCURVE",
"106 -493 CURVE",
"110 -489 OFFCURVE",
"116 -488 OFFCURVE",
"140 -487 CURVE SMOOTH",
"168 -486 LINE",
"213 -375 LINE SMOOTH",
"237 -314 OFFCURVE",
"258 -262 OFFCURVE",
"260 -258 CURVE SMOOTH",
"262 -254 OFFCURVE",
"266 -252 OFFCURVE",
"271 -252 CURVE SMOOTH",
"278 -252 OFFCURVE",
"280 -254 OFFCURVE",
"286 -265 CURVE",
"289 -272 OFFCURVE",
"301 -305 OFFCURVE",
"312 -338 CURVE SMOOTH",
"349 -452 OFFCURVE",
"360 -481 OFFCURVE",
"379 -513 CURVE SMOOTH",
"384 -521 OFFCURVE",
"387 -530 OFFCURVE",
"387 -532 CURVE",
"386 -535 OFFCURVE",
"363 -535 OFFCURVE",
"258 -535 CURVE SMOOTH",
"131 -535 LINE",
"116 -521 LINE SMOOTH"
);
},
{
closed = 1;
nodes = (
"289 -468 OFFCURVE",
"273 -378 OFFCURVE",
"271 -377 CURVE",
"267 -376 OFFCURVE",
"229 -459 OFFCURVE",
"229 -467 CURVE SMOOTH",
"229 -474 LINE",
"258 -471 LINE",
"273 -471 OFFCURVE",
"287 -470 OFFCURVE",
"288 -470 CURVE"
);
}
);
width = 487;
}
);
unicode = 0034;
},
{
glyphname = five;
lastChange = "2019-03-05 05:48:29 +0000";
layers = (
{
layerId = "6AE76F26-A731-4FB1-ABE3-4EB47684FF25";
paths = (
{
closed = 1;
nodes = (
"105 -531 OFFCURVE",
"102 -526 OFFCURVE",
"101 -522 CURVE",
"100 -517 OFFCURVE",
"101 -514 OFFCURVE",
"112 -499 CURVE SMOOTH",
"126 -479 OFFCURVE",
"138 -454 OFFCURVE",
"139 -444 CURVE",
"140 -439 OFFCURVE",
"136 -419 OFFCURVE",
"125 -373 CURVE SMOOTH",
"112 -322 OFFCURVE",
"109 -307 OFFCURVE",
"109 -296 CURVE SMOOTH",
"109 -282 LINE",
"117 -275 LINE",
"126 -266 OFFCURVE",
"145 -258 OFFCURVE",
"173 -252 CURVE",
"196 -248 OFFCURVE",
"197 -248 OFFCURVE",
"202 -253 CURVE SMOOTH",
"206 -257 LINE",
"201 -297 LINE SMOOTH",
"197 -326 OFFCURVE",
"196 -337 OFFCURVE",
"197 -341 CURVE",
"198 -343 OFFCURVE",
"199 -345 OFFCURVE",
"200 -345 CURVE",
"269 -321 LINE SMOOTH",
"337 -297 OFFCURVE",
"339 -297 OFFCURVE",
"352 -297 CURVE",
"364 -298 OFFCURVE",
"365 -298 OFFCURVE",
"368 -303 CURVE SMOOTH",
"372 -310 OFFCURVE",
"376 -332 OFFCURVE",
"374 -341 CURVE",
"373 -348 OFFCURVE",
"365 -358 OFFCURVE",
"356 -362 CURVE",
"353 -364 OFFCURVE",
"344 -366 OFFCURVE",
"337 -367 CURVE",
"318 -369 OFFCURVE",
"212 -406 OFFCURVE",
"207 -412 CURVE",
"206 -412 OFFCURVE",
"206 -414 OFFCURVE",
"205 -416 CURVE",
"204 -420 OFFCURVE",
"205 -421 OFFCURVE",
"209 -422 CURVE",
"221 -427 OFFCURVE",
"259 -435 OFFCURVE",
"304 -443 CURVE SMOOTH",
"370 -453 OFFCURVE",
"371 -454 OFFCURVE",
"376 -460 CURVE",
"384 -471 OFFCURVE",
"386 -477 OFFCURVE",
"386 -492 CURVE SMOOTH",
"386 -505 OFFCURVE",
"386 -506 OFFCURVE",
"380 -511 CURVE",
"375 -516 OFFCURVE",
"373 -517 OFFCURVE",
"367 -517 CURVE SMOOTH",
"363 -517 OFFCURVE",
"328 -509 OFFCURVE",
"288 -500 CURVE SMOOTH",
"217 -483 LINE",
"216 -483 OFFCURVE",
"215 -487 OFFCURVE",
"213 -492 CURVE",
"210 -505 OFFCURVE",
"197 -519 OFFCURVE",
"180 -527 CURVE SMOOTH",
"163 -535 OFFCURVE",
"149 -539 OFFCURVE",
"129 -539 CURVE SMOOTH",
"113 -539 OFFCURVE",
"112 -538 OFFCURVE",
"108 -533 CURVE"
);
}
);
width = 435;
}
);
unicode = 0035;
},
{
glyphname = six;
lastChange = "2019-03-05 05:48:29 +0000";
layers = (
{
layerId = "6AE76F26-A731-4FB1-ABE3-4EB47684FF25";
paths = (
{
closed = 1;
nodes = (
"141 -509 OFFCURVE",
"139 -500 OFFCURVE",
"146 -479 CURVE SMOOTH",
"155 -449 OFFCURVE",
"182 -406 OFFCURVE",
"226 -353 CURVE SMOOTH",
"242 -334 LINE",
"226 -333 LINE SMOOTH",
"145 -326 OFFCURVE",
"110 -318 OFFCURVE",
"102 -304 CURVE",
"100 -300 OFFCURVE",
"100 -299 OFFCURVE",
"103 -296 CURVE",
"106 -292 OFFCURVE",
"119 -287 OFFCURVE",
"135 -282 CURVE",
"144 -280 OFFCURVE",
"146 -278 OFFCURVE",
"153 -269 CURVE SMOOTH",
"161 -258 OFFCURVE",
"174 -249 OFFCURVE",
"180 -249 CURVE SMOOTH",
"183 -249 OFFCURVE",
"186 -251 OFFCURVE",
"189 -257 CURVE SMOOTH",
"191 -261 OFFCURVE",
"195 -266 OFFCURVE",
"199 -268 CURVE",
"210 -276 OFFCURVE",
"237 -278 OFFCURVE",
"261 -273 CURVE SMOOTH",
"290 -267 OFFCURVE",
"358 -265 OFFCURVE",
"379 -270 CURVE",
"389 -272 OFFCURVE",
"393 -274 OFFCURVE",
"399 -280 CURVE",
"408 -290 OFFCURVE",
"409 -296 OFFCURVE",
"402 -310 CURVE SMOOTH",
"395 -324 OFFCURVE",
"360 -358 OFFCURVE",
"329 -382 CURVE SMOOTH",
"292 -410 OFFCURVE",
"247 -454 OFFCURVE",
"247 -462 CURVE SMOOTH",
"247 -463 OFFCURVE",
"253 -461 OFFCURVE",
"259 -458 CURVE SMOOTH",
"285 -446 OFFCURVE",
"313 -443 OFFCURVE",
"336 -449 CURVE SMOOTH",
"358 -454 OFFCURVE",
"381 -471 OFFCURVE",
"401 -493 CURVE SMOOTH",
"411 -504 OFFCURVE",
"426 -525 OFFCURVE",
"426 -527 CURVE SMOOTH",
"426 -528 OFFCURVE",
"422 -530 OFFCURVE",
"417 -533 CURVE",
"406 -538 OFFCURVE",
"398 -538 OFFCURVE",
"356 -535 CURVE SMOOTH",
"328 -533 LINE",
"311 -524 LINE SMOOTH",
"271 -502 OFFCURVE",
"268 -502 OFFCURVE",
"210 -522 CURVE SMOOTH",
"186 -530 OFFCURVE",
"165 -537 OFFCURVE",
"164 -537 CURVE SMOOTH",
"163 -537 OFFCURVE",
"159 -533 OFFCURVE",
"155 -529 CURVE"
);
}
);
width = 526;
}
);
unicode = 0036;
},
{
glyphname = seven;
lastChange = "2019-03-05 05:48:29 +0000";
layers = (
{
layerId = "6AE76F26-A731-4FB1-ABE3-4EB47684FF25";
paths = (
{
closed = 1;
nodes = (
"222 -509 OFFCURVE",
"217 -501 OFFCURVE",
"214 -495 CURVE",
"208 -484 OFFCURVE",
"194 -442 OFFCURVE",
"192 -431 CURVE",
"190 -422 OFFCURVE",
"172 -402 OFFCURVE",
"154 -388 CURVE",
"141 -379 OFFCURVE",
"122 -369 OFFCURVE",
"110 -365 CURVE SMOOTH",
"100 -362 OFFCURVE",
"99 -358 OFFCURVE",
"101 -334 CURVE",
"102 -305 OFFCURVE",
"106 -293 OFFCURVE",
"119 -280 CURVE",
"126 -274 OFFCURVE",
"132 -269 OFFCURVE",
"137 -268 CURVE",
"144 -266 OFFCURVE",
"145 -266 OFFCURVE",
"155 -271 CURVE SMOOTH",
"182 -285 OFFCURVE",
"219 -336 OFFCURVE",
"225 -368 CURVE SMOOTH",
"229 -392 OFFCURVE",
"232 -405 OFFCURVE",
"234 -403 CURVE",
"234 -402 OFFCURVE",
"236 -398 OFFCURVE",
"237 -393 CURVE",
"243 -373 OFFCURVE",
"268 -330 OFFCURVE",
"297 -292 CURVE SMOOTH",
"310 -275 LINE",
"321 -276 LINE",
"336 -276 OFFCURVE",
"342 -280 OFFCURVE",
"351 -294 CURVE",
"356 -301 OFFCURVE",
"357 -305 OFFCURVE",
"357 -312 CURVE SMOOTH",
"357 -320 OFFCURVE",
"356 -323 OFFCURVE",
"325 -371 CURVE SMOOTH",
"301 -409 OFFCURVE",
"291 -427 OFFCURVE",
"284 -444 CURVE SMOOTH",
"271 -474 OFFCURVE",
"256 -503 OFFCURVE",
"249 -512 CURVE",
"241 -521 OFFCURVE",
"235 -521 OFFCURVE",
"226 -512 CURVE"
);
}
);
width = 457;
}
);
unicode = 0037;
},
{
glyphname = comma;
lastChange = "2019-03-05 05:48:29 +0000";
layers = (
{
components = (
{
name = ex;
transform = "{1, 0, 0, 1, 120, 0}";
}
);
layerId = "6AE76F26-A731-4FB1-ABE3-4EB47684FF25";
paths = (
{
closed = 1;
nodes = (
"164 411 OFFCURVE",
"164 405 OFFCURVE",
"169 397 CURVE",
"180 381 OFFCURVE",
"184 361 OFFCURVE",
"186 321 CURVE SMOOTH",
"188 279 OFFCURVE",
"193 264 OFFCURVE",
"211 252 CURVE",
"221 243 OFFCURVE",
"227 242 OFFCURVE",
"243 250 CURVE",
"267 258 OFFCURVE",
"267 256 OFFCURVE",
"262 314 CURVE",
"261 342 OFFCURVE",
"257 366 OFFCURVE",
"257 371 CURVE SMOOTH",
"257 376 LINE",
"285 376 LINE SMOOTH",
"302 376 OFFCURVE",
"334 375 OFFCURVE",
"359 374 CURVE SMOOTH",
"410 372 OFFCURVE",
"421 372 OFFCURVE",
"425 381 CURVE",
"428 386 OFFCURVE",
"428 390 OFFCURVE",
"425 433 CURVE SMOOTH",
"423 460 OFFCURVE",
"421 486 OFFCURVE",
"421 493 CURVE",
"419 504 LINE",
"499 502 LINE SMOOTH",
"594 500 OFFCURVE",
"591 501 OFFCURVE",
"590 524 CURVE",
"590 526 OFFCURVE",
"589 527 OFFCURVE",
"589 529 CURVE",
"585 579 LINE SMOOTH",
"583 610 OFFCURVE",
"580 637 OFFCURVE",
"580 639 CURVE SMOOTH",
"580 642 OFFCURVE",
"583 642 OFFCURVE",
"624 642 CURVE SMOOTH",
"649 642 OFFCURVE",
"676 641 OFFCURVE",
"685 640 CURVE SMOOTH",
"734 635 OFFCURVE",
"746 636 OFFCURVE",
"755 645 CURVE SMOOTH",
"759 649 OFFCURVE",
"760 650 OFFCURVE",
"759 661 CURVE",
"757 674 OFFCURVE",
"754 682 OFFCURVE",
"746 687 CURVE",
"742 691 OFFCURVE",
"739 691 OFFCURVE",
"726 690 CURVE",
"697 689 OFFCURVE",
"605 689 OFFCURVE",
"549 691 CURVE SMOOTH",
"493 693 LINE",
"490 688 LINE",
"485 682 OFFCURVE",
"486 670 OFFCURVE",
"493 657 CURVE",
"500 640 OFFCURVE",
"505 617 OFFCURVE",
"507 581 CURVE",
"508 570 OFFCURVE",
"508 560 OFFCURVE",
"509 553 CURVE",
"335 553 LINE",
"331 549 LINE",
"327 542 OFFCURVE",
"328 533 OFFCURVE",
"334 518 CURVE",
"342 502 OFFCURVE",
"346 484 OFFCURVE",
"348 447 CURVE SMOOTH",
"349 423 LINE",
"173 425 LINE",
"169 420 LINE"
);
}
);
width = 879;
}
);
unicode = 002C;
},
{
glyphname = slash;
lastChange = "2019-03-05 05:48:29 +0000";
layers = (
{
layerId = "6AE76F26-A731-4FB1-ABE3-4EB47684FF25";
paths = (
{
closed = 1;
nodes = (
"364 -179 OFFCURVE",
"343 -148 OFFCURVE",
"337 -110 CURVE",
"335 -99 OFFCURVE",
"333 -61 OFFCURVE",
"332 -24 CURVE",
"329 40 OFFCURVE",
"329 42 OFFCURVE",
"323 43 CURVE",
"317 44 OFFCURVE",
"316 42 OFFCURVE",
"315 21 CURVE",
"314 8 OFFCURVE",
"313 -29 OFFCURVE",
"313 -62 CURVE",
"313 -121 LINE",
"304 -135 LINE",
"293 -152 OFFCURVE",
"273 -165 OFFCURVE",
"253 -167 CURVE",
"230 -170 OFFCURVE",
"227 -161 OFFCURVE",
"237 -118 CURVE",
"247 -83 OFFCURVE",
"255 -19 OFFCURVE",
"255 11 CURVE",
"255 34 OFFCURVE",
"254 38 OFFCURVE",
"250 39 CURVE",
"239 42 OFFCURVE",
"206 47 OFFCURVE",
"204 45 CURVE",
"202 44 OFFCURVE",
"198 38 OFFCURVE",
"193 30 CURVE",
"186 19 OFFCURVE",
"184 17 OFFCURVE",
"175 17 CURVE",
"166 17 OFFCURVE",
"163 19 OFFCURVE",
"157 29 CURVE",
"149 39 OFFCURVE",
"149 43 OFFCURVE",
"150 63 CURVE",
"151 82 OFFCURVE",
"152 87 OFFCURVE",
"159 94 CURVE",
"166 102 LINE",
"309 100 LINE",
"461 98 OFFCURVE",
"469 98 OFFCURVE",
"476 84 CURVE",
"482 73 OFFCURVE",
"480 51 OFFCURVE",
"472 42 CURVE",
"466 34 OFFCURVE",
"465 34 OFFCURVE",
"446 38 CURVE",
"433 41 OFFCURVE",
"425 41 OFFCURVE",
"420 39 CURVE",
"411 36 LINE",
"411 -15 LINE",
"412 -70 OFFCURVE",
"414 -93 OFFCURVE",
"426 -137 CURVE",
"434 -163 OFFCURVE",
"434 -165 OFFCURVE",
"429 -173 CURVE",
"424 -180 OFFCURVE",
"408 -189 OFFCURVE",
"400 -189 CURVE",
"398 -189 OFFCURVE",
"392 -187 OFFCURVE",
"387 -186 CURVE"
);
},
{
closed = 1;
nodes = (
"413 137 OFFCURVE",
"391 150 OFFCURVE",
"376 164 CURVE",
"351 186 OFFCURVE",
"313 242 OFFCURVE",
"307 262 CURVE",
"305 272 LINE",
"291 247 LINE",
"283 232 OFFCURVE",
"272 210 OFFCURVE",
"264 196 CURVE",
"251 170 OFFCURVE",
"241 160 OFFCURVE",
"226 157 CURVE",
"216 155 OFFCURVE",
"199 162 OFFCURVE",
"196 169 CURVE",
"195 171 OFFCURVE",
"201 188 OFFCURVE",
"210 206 CURVE",
"250 290 OFFCURVE",
"271 347 OFFCURVE",
"275 380 CURVE",
"277 399 OFFCURVE",
"270 426 OFFCURVE",
"254 457 CURVE",
"236 493 OFFCURVE",
"221 506 OFFCURVE",
"187 514 CURVE",
"171 517 OFFCURVE",
"169 519 OFFCURVE",
"166 528 CURVE",
"164 537 OFFCURVE",
"164 539 OFFCURVE",
"175 548 CURVE",
"193 563 OFFCURVE",
"205 568 OFFCURVE",
"222 566 CURVE",
"253 561 OFFCURVE",
"284 535 OFFCURVE",
"311 489 CURVE",
"326 464 OFFCURVE",
"336 435 OFFCURVE",
"369 324 CURVE",
"393 242 OFFCURVE",
"404 221 OFFCURVE",
"443 191 CURVE",
"456 180 OFFCURVE",
"465 170 OFFCURVE",
"468 163 CURVE",
"474 150 OFFCURVE",
"474 150 OFFCURVE",
"467 140 CURVE",
"460 127 OFFCURVE",
"454 127 OFFCURVE",
"430 133 CURVE"
);
}
);
width = 579;
}
);
unicode = 002F;
},
{
glyphname = bracketleft;
lastChange = "2019-03-05 05:48:29 +0000";
layers = (
{
layerId = "6AE76F26-A731-4FB1-ABE3-4EB47684FF25";
paths = (
{
closed = 1;
nodes = (
"189 -146 OFFCURVE",
"171 -139 OFFCURVE",
"163 -131 CURVE",
"160 -129 OFFCURVE",
"155 -123 OFFCURVE",
"153 -118 CURVE",
"150 -111 OFFCURVE",
"149 -108 OFFCURVE",
"150 -91 CURVE",
"152 -62 OFFCURVE",
"160 -43 OFFCURVE",
"182 -17 CURVE",
"206 11 OFFCURVE",
"259 44 OFFCURVE",
"313 65 CURVE",
"322 68 OFFCURVE",
"328 72 OFFCURVE",
"328 73 CURVE",
"328 74 OFFCURVE",
"321 83 OFFCURVE",
"314 94 CURVE",
"286 133 OFFCURVE",
"261 177 OFFCURVE",
"255 197 CURVE",
"251 211 OFFCURVE",
"251 227 OFFCURVE",
"255 239 CURVE",
"265 266 OFFCURVE",
"280 285 OFFCURVE",
"297 289 CURVE",
"327 297 OFFCURVE",
"363 299 OFFCURVE",
"381 293 CURVE",
"418 282 OFFCURVE",
"451 256 OFFCURVE",
"477 215 CURVE",
"502 179 OFFCURVE",
"509 149 OFFCURVE",
"511 81 CURVE",
"511 46 OFFCURVE",
"511 38 OFFCURVE",
"508 18 CURVE",
"506 5 OFFCURVE",
"505 -6 OFFCURVE",
"505 -6 CURVE",
"506 -7 OFFCURVE",
"516 -7 OFFCURVE",
"529 -7 CURVE",
"551 -7 OFFCURVE",
"552 -8 OFFCURVE",
"565 -14 CURVE",
"572 -17 OFFCURVE",
"582 -24 OFFCURVE",
"587 -28 CURVE",
"615 -53 OFFCURVE",
"635 -99 OFFCURVE",
"629 -127 CURVE",
"627 -139 OFFCURVE",
"622 -148 OFFCURVE",
"617 -148 CURVE",
"615 -148 OFFCURVE",
"604 -144 OFFCURVE",
"591 -140 CURVE",
"568 -132 LINE",
"568 -123 LINE",
"569 -88 OFFCURVE",
"569 -82 OFFCURVE",
"566 -75 CURVE",
"557 -51 OFFCURVE",
"538 -41 OFFCURVE",
"498 -39 CURVE",
"474 -38 LINE",
"475 -33 LINE",
"481 9 OFFCURVE",
"469 69 OFFCURVE",
"441 140 CURVE",
"424 183 OFFCURVE",
"416 197 OFFCURVE",
"405 208 CURVE",
"385 226 OFFCURVE",
"363 238 OFFCURVE",
"354 236 CURVE",
"346 234 OFFCURVE",
"337 227 OFFCURVE",
"330 217 CURVE",
"323 207 OFFCURVE",
"323 206 OFFCURVE",
"323 189 CURVE",
"323 175 OFFCURVE",
"324 168 OFFCURVE",
"327 160 CURVE",
"334 139 OFFCURVE",
"354 109 OFFCURVE",
"389 66 CURVE",
"410 41 LINE",
"414 20 LINE",
"417 0 OFFCURVE",
"417 -1 OFFCURVE",
"414 -15 CURVE",
"406 -51 OFFCURVE",
"394 -75 OFFCURVE",
"377 -92 CURVE",
"354 -115 OFFCURVE",
"311 -140 OFFCURVE",
"281 -148 CURVE",
"260 -153 OFFCURVE",
"227 -154 OFFCURVE",
"206 -150 CURVE"
);
},
{
closed = 1;
nodes = (
"318 -97 OFFCURVE",
"346 -56 OFFCURVE",
"364 -4 CURVE",
"373 25 OFFCURVE",
"371 35 OFFCURVE",
"356 35 CURVE",
"340 35 OFFCURVE",
"307 5 OFFCURVE",
"276 -36 CURVE",
"260 -56 LINE",
"257 -78 LINE",
"252 -102 OFFCURVE",
"253 -107 OFFCURVE",
"262 -113 CURVE",
"268 -117 OFFCURVE",
"277 -116 OFFCURVE",
"291 -109 CURVE"
);
},
{
closed = 1;
nodes = (
"405 330 OFFCURVE",
"397 331 OFFCURVE",
"396 332 CURVE",
"393 334 OFFCURVE",
"394 341 OFFCURVE",
"398 344 CURVE",
"400 345 OFFCURVE",
"402 349 OFFCURVE",
"403 354 CURVE",
"405 370 OFFCURVE",
"389 391 OFFCURVE",
"355 415 CURVE",
"336 428 OFFCURVE",
"335 432 OFFCURVE",
"350 432 CURVE",
"370 432 OFFCURVE",
"398 419 OFFCURVE",
"428 398 CURVE",
"452 381 OFFCURVE",
"464 349 OFFCURVE",
"453 332 CURVE",
"450 328 OFFCURVE",
"449 327 OFFCURVE",
"439 328 CURVE",
"433 328 OFFCURVE",
"421 328 OFFCURVE",
"413 329 CURVE"
);
},
{
closed = 1;
nodes = (
"311 344 OFFCURVE",
"305 346 OFFCURVE",
"302 349 CURVE",
"300 352 OFFCURVE",
"300 354 OFFCURVE",
"305 361 CURVE",
"312 372 OFFCURVE",
"311 375 OFFCURVE",
"300 387 CURVE",
"290 398 OFFCURVE",
"280 404 OFFCURVE",
"260 415 CURVE",
"252 420 OFFCURVE",
"245 424 OFFCURVE",
"245 425 CURVE",
"245 427 OFFCURVE",
"247 429 OFFCURVE",
"250 431 CURVE",
"254 433 OFFCURVE",
"256 433 OFFCURVE",
"278 427 CURVE",
"306 419 OFFCURVE",
"334 407 OFFCURVE",
"346 396 CURVE",
"358 385 OFFCURVE",
"364 373 OFFCURVE",
"364 359 CURVE",
"364 343 OFFCURVE",
"360 340 OFFCURVE",
"343 340 CURVE",
"336 340 OFFCURVE",
"327 341 OFFCURVE",
"322 342 CURVE"
);
},
{
closed = 1;
nodes = (
"403 531 OFFCURVE",
"314 549 OFFCURVE",
"287 552 CURVE",
"264 556 OFFCURVE",
"222 562 OFFCURVE",
"218 562 CURVE",
"218 562 OFFCURVE",
"222 565 OFFCURVE",
"229 568 CURVE",
"236 573 OFFCURVE",
"241 575 OFFCURVE",
"249 575 CURVE",
"266 579 OFFCURVE",
"295 588 OFFCURVE",
"316 596 CURVE",
"338 604 OFFCURVE",
"373 622 OFFCURVE",
"385 630 CURVE",
"401 640 OFFCURVE",
"428 671 OFFCURVE",
"448 701 CURVE",
"462 722 OFFCURVE",
"470 736 OFFCURVE",
"478 758 CURVE",
"493 794 OFFCURVE",
"508 821 OFFCURVE",
"517 829 CURVE",
"519 831 OFFCURVE",
"524 833 OFFCURVE",
"534 835 CURVE",
"547 838 OFFCURVE",
"550 838 OFFCURVE",
"567 838 CURVE",
"581 838 OFFCURVE",
"586 838 OFFCURVE",
"588 836 CURVE",
"593 833 OFFCURVE",
"604 825 OFFCURVE",
"604 824 CURVE",
"604 823 OFFCURVE",
"600 818 OFFCURVE",
"596 812 CURVE",
"588 799 OFFCURVE",
"573 769 OFFCURVE",
"564 748 CURVE",
"548 709 OFFCURVE",
"533 684 OFFCURVE",
"504 655 CURVE",
"492 643 OFFCURVE",
"487 639 OFFCURVE",
"463 624 CURVE",
"439 607 OFFCURVE",
"433 605 OFFCURVE",
"392 587 CURVE",
"362 573 OFFCURVE",
"347 567 OFFCURVE",
"344 567 CURVE",
"339 567 OFFCURVE",
"341 566 OFFCURVE",
"351 562 CURVE",
"367 556 OFFCURVE",
"383 550 OFFCURVE",
"395 542 CURVE",
"400 538 OFFCURVE",
"404 536 OFFCURVE",
"405 536 CURVE",
"407 536 OFFCURVE",
"418 527 OFFCURVE",
"419 525 CURVE",
"420 524 OFFCURVE",
"419 524 OFFCURVE",
"413 526 CURVE"
);
}
);
width = 780;
}
);
unicode = 005B;
},
{
glyphname = quotedblleft;
lastChange = "2019-03-05 05:48:29 +0000";
layers = (
{
layerId = "6AE76F26-A731-4FB1-ABE3-4EB47684FF25";
paths = (
{
closed = 1;
nodes = (
"966 -117 OFFCURVE",
"967 -116 OFFCURVE",
"968 -115 CURVE",
"969 -115 OFFCURVE",
"990 -107 OFFCURVE",
"1016 -98 CURVE",
"1063 -80 LINE",
"1076 -66 LINE",
"1089 -53 LINE",
"1096 -34 LINE",
"1104 -14 LINE",
"1100 10 LINE",
"1098 23 OFFCURVE",
"1096 37 OFFCURVE",
"1095 42 CURVE",
"1092 50 OFFCURVE",
"1092 55 OFFCURVE",
"1094 66 CURVE",
"1096 74 OFFCURVE",
"1097 76 OFFCURVE",
"1108 90 CURVE",
"1114 98 OFFCURVE",
"1120 105 OFFCURVE",
"1121 106 CURVE",
"1121 107 OFFCURVE",
"1131 109 OFFCURVE",
"1143 112 CURVE",
"1164 117 LINE",
"1186 115 LINE",
"1199 115 OFFCURVE",
"1210 113 OFFCURVE",
"1210 113 CURVE",
"1214 111 OFFCURVE",
"1209 95 OFFCURVE",
"1202 85 CURVE",
"1200 80 OFFCURVE",
"1198 75 OFFCURVE",
"1196 66 CURVE",
"1193 52 LINE",
"1197 35 LINE",
"1199 26 OFFCURVE",
"1202 13 OFFCURVE",
"1202 6 CURVE",
"1204 -6 LINE",
"1194 -25 LINE",
"1185 -44 OFFCURVE",
"1184 -45 OFFCURVE",
"1171 -58 CURVE",
"1159 -71 OFFCURVE",
"1156 -73 OFFCURVE",
"1139 -83 CURVE",
"1120 -93 LINE",
"1087 -101 LINE",
"1061 -106 OFFCURVE",
"1043 -109 OFFCURVE",
"1011 -113 CURVE",
"963 -120 OFFCURVE",
"968 -119 OFFCURVE",
"967 -117 CURVE"
);
},
{
closed = 1;
nodes = (
"507 -71 OFFCURVE",
"493 -69 OFFCURVE",
"491 -68 CURVE",
"490 -67 OFFCURVE",
"470 -53 OFFCURVE",
"448 -37 CURVE",
"400 -2 OFFCURVE",
"389 8 OFFCURVE",
"371 37 CURVE",
"365 46 OFFCURVE",
"359 55 OFFCURVE",
"358 55 CURVE",
"358 56 OFFCURVE",
"354 50 OFFCURVE",
"349 41 CURVE",
"344 31 OFFCURVE",
"333 16 OFFCURVE",
"315 -8 CURVE",
"291 -40 OFFCURVE",
"289 -42 OFFCURVE",
"278 -51 CURVE",
"266 -59 LINE",
"233 -53 LINE",
"215 -50 OFFCURVE",
"200 -47 OFFCURVE",
"199 -47 CURVE",
"198 -46 OFFCURVE",
"219 -21 OFFCURVE",
"245 9 CURVE",
"298 71 OFFCURVE",
"302 76 OFFCURVE",
"314 110 CURVE",
"323 133 LINE",
"313 151 LINE",
"300 179 OFFCURVE",
"292 189 OFFCURVE",
"262 210 CURVE",
"240 226 OFFCURVE",
"239 226 OFFCURVE",
"225 230 CURVE",
"217 232 OFFCURVE",
"197 236 OFFCURVE",
"181 238 CURVE",
"165 241 OFFCURVE",
"151 243 OFFCURVE",
"150 244 CURVE",
"149 245 OFFCURVE",
"154 248 OFFCURVE",
"166 255 CURVE",
"184 264 LINE",
"222 262 LINE",
"261 261 OFFCURVE",
"261 261 OFFCURVE",
"276 256 CURVE",
"301 248 OFFCURVE",
"315 240 OFFCURVE",
"342 220 CURVE",
"360 205 OFFCURVE",
"367 199 OFFCURVE",
"373 191 CURVE",
"378 185 OFFCURVE",
"401 149 OFFCURVE",
"424 112 CURVE",
"466 44 LINE",
"466 74 LINE",
"466 91 OFFCURVE",
"467 105 OFFCURVE",
"468 106 CURVE",
"469 107 OFFCURVE",
"711 78 OFFCURVE",
"713 76 CURVE",
"715 74 OFFCURVE",
"710 50 OFFCURVE",
"707 49 CURVE",
"707 48 OFFCURVE",
"667 52 OFFCURVE",
"620 58 CURVE",
"572 63 OFFCURVE",
"533 67 OFFCURVE",
"532 66 CURVE",
"527 65 OFFCURVE",
"527 50 OFFCURVE",
"532 17 CURVE",
"534 0 OFFCURVE",
"537 -16 OFFCURVE",
"537 -18 CURVE",
"537 -20 OFFCURVE",
"543 -25 OFFCURVE",
"564 -40 CURVE",
"589 -59 OFFCURVE",
"596 -65 OFFCURVE",
"596 -72 CURVE",
"597 -75 OFFCURVE",
"596 -75 OFFCURVE",
"585 -76 CURVE",
"566 -78 OFFCURVE",
"555 -77 OFFCURVE",
"524 -73 CURVE"
);
},
{
closed = 1;
nodes = (
"709 -46 OFFCURVE",
"701 -41 OFFCURVE",
"700 -40 CURVE",
"699 -39 OFFCURVE",
"697 -32 OFFCURVE",
"696 -18 CURVE",
"693 3 LINE",
"700 20 LINE",
"707 35 OFFCURVE",
"707 36 OFFCURVE",
"728 62 CURVE",
"758 97 OFFCURVE",
"772 118 OFFCURVE",
"777 135 CURVE",
"779 142 OFFCURVE",
"781 148 OFFCURVE",
"781 148 CURVE",
"780 148 OFFCURVE",
"755 150 OFFCURVE",
"725 153 CURVE",
"669 158 OFFCURVE",
"590 168 OFFCURVE",
"588 171 CURVE",
"587 172 OFFCURVE",
"585 178 OFFCURVE",
"584 185 CURVE",
"582 197 OFFCURVE",
"582 199 OFFCURVE",
"584 200 CURVE",
"587 203 OFFCURVE",
"607 204 OFFCURVE",
"652 205 CURVE",
"694 206 OFFCURVE",
"706 205 OFFCURVE",
"788 201 CURVE",
"877 195 LINE",
"890 189 LINE",
"897 185 OFFCURVE",
"907 178 OFFCURVE",
"913 174 CURVE",
"923 166 LINE",
"922 158 LINE",
"922 153 OFFCURVE",
"921 148 OFFCURVE",
"920 147 CURVE",
"919 147 OFFCURVE",
"910 144 OFFCURVE",
"901 142 CURVE",
"883 138 LINE",
"858 139 LINE",
"841 141 OFFCURVE",
"833 141 OFFCURVE",
"832 140 CURVE",
"832 139 OFFCURVE",
"826 124 OFFCURVE",
"821 107 CURVE",
"815 89 OFFCURVE",
"807 68 OFFCURVE",
"803 59 CURVE",
"796 42 OFFCURVE",
"796 42 OFFCURVE",
"795 25 CURVE",
"795 10 OFFCURVE",
"795 8 OFFCURVE",
"798 3 CURVE",
"799 0 OFFCURVE",
"801 -3 OFFCURVE",
"801 -3 CURVE",
"802 -3 OFFCURVE",
"808 -1 OFFCURVE",
"814 1 CURVE",
"826 3 OFFCURVE",
"829 5 OFFCURVE",
"868 30 CURVE",
"907 55 OFFCURVE",
"910 57 OFFCURVE",
"922 70 CURVE",
"933 82 OFFCURVE",
"935 83 OFFCURVE",
"962 99 CURVE",
"991 116 LINE",
"1010 119 LINE",
"1030 122 LINE",
"1046 117 LINE",
"1055 114 OFFCURVE",
"1064 111 OFFCURVE",
"1066 110 CURVE",
"1068 109 OFFCURVE",
"1070 104 OFFCURVE",
"1073 91 CURVE",
"1078 73 OFFCURVE",
"1078 73 OFFCURVE",
"1077 61 CURVE",
"1070 11 OFFCURVE",
"1037 -29 OFFCURVE",
"989 -44 CURVE",
"974 -49 OFFCURVE",
"959 -51 OFFCURVE",
"940 -50 CURVE",
"924 -50 LINE",
"910 -43 LINE",
"902 -39 OFFCURVE",
"895 -35 OFFCURVE",
"894 -34 CURVE",
"892 -32 OFFCURVE",
"889 -25 OFFCURVE",
"886 -17 CURVE",
"884 -9 OFFCURVE",
"881 -1 OFFCURVE",
"880 -1 CURVE",
"880 0 OFFCURVE",
"875 -1 OFFCURVE",
"868 -3 CURVE",
"860 -5 OFFCURVE",
"854 -8 OFFCURVE",
"844 -14 CURVE",
"822 -27 OFFCURVE",
"772 -50 OFFCURVE",
"752 -55 CURVE",
"744 -57 OFFCURVE",
"736 -59 OFFCURVE",
"735 -59 CURVE",
"734 -59 OFFCURVE",
"726 -55 OFFCURVE",
"717 -50 CURVE"
);
},
{
closed = 1;
nodes = (
"1007 0 OFFCURVE",
"1014 7 OFFCURVE",
"1022 16 CURVE",
"1034 29 LINE",
"1039 48 LINE",
"1041 59 OFFCURVE",
"1044 73 OFFCURVE",
"1045 81 CURVE",
"1047 95 LINE",
"1041 96 LINE",
"1035 98 LINE",
"1010 73 LINE",
"984 48 LINE",
"977 32 LINE",
"970 15 OFFCURVE",
"969 12 OFFCURVE",
"971 -5 CURVE",
"972 -13 OFFCURVE",
"972 -13 OFFCURVE",
"976 -14 CURVE",
"983 -16 OFFCURVE",
"984 -16 OFFCURVE",
"997 -7 CURVE"
);
}
);
width = 1361;
}
);
unicode = 201C;
},
{
glyphname = bar;
lastChange = "2019-03-05 05:48:29 +0000";
layers = (
{
layerId = "6AE76F26-A731-4FB1-ABE3-4EB47684FF25";
paths = (
{
closed = 1;
nodes = (
"-366 319 OFFCURVE",
"-368 354 CURVE SMOOTH",
"-368 418 OFFCURVE",
"-366 503 OFFCURVE",
"-363 509 CURVE SMOOTH",
"-362 511 OFFCURVE",
"-360 512 OFFCURVE",
"-358 513 CURVE SMOOTH",
"-354 515 OFFCURVE",
"-347 515 OFFCURVE",
"-344 511 CURVE SMOOTH",
"-333 496 OFFCURVE",
"-335 484 OFFCURVE",
"-334 345 CURVE SMOOTH",
"-334 305 OFFCURVE",
"-334 302 OFFCURVE",
"-339 297 CURVE SMOOTH",
"-343 293 OFFCURVE",
"-352 288 OFFCURVE",
"-356 288 CURVE SMOOTH",
"-365 288 OFFCURVE"
);
}
);
width = 0;
}
);
unicode = 007C;
},
{
glyphname = grave;
lastChange = "2019-03-05 05:48:29 +0000";
layers = (
{
layerId = "6AE76F26-A731-4FB1-ABE3-4EB47684FF25";
paths = (
{
closed = 1;
nodes = (
"-71 -249 OFFCURVE",
"-70 -245 OFFCURVE",
"-63 -223 CURVE SMOOTH",
"-43 -161 OFFCURVE",
"-35 -146 OFFCURVE",
"-20 -143 CURVE SMOOTH",
"-11 -141 OFFCURVE",
"1 -147 OFFCURVE",
"11 -157 CURVE SMOOTH",
"20 -166 OFFCURVE",
"21 -179 OFFCURVE",
"14 -189 CURVE SMOOTH",
"8 -198 OFFCURVE",
"-59 -256 OFFCURVE",
"-63 -256 CURVE SMOOTH",
"-65 -256 OFFCURVE",
"-67 -255 OFFCURVE",
"-69 -252 CURVE SMOOTH"
);
}
);
width = 0;
}
);
unicode = 0060;
},
{
export = 0;
glyphname = apostrophoi;
lastChange = "2019-03-05 05:48:29 +0000";
layers = (
{
layerId = "6AE76F26-A731-4FB1-ABE3-4EB47684FF25";
paths = (
{
closed = 1;
nodes = (
"304 -219 OFFCURVE",
"297 -216 OFFCURVE",
"307 -206 CURVE SMOOTH",
"310 -203 OFFCURVE",
"312 -201 OFFCURVE",
"312 -196 CURVE SMOOTH",
"312 -177 OFFCURVE",
"298 -159 OFFCURVE",
"264 -135 CURVE SMOOTH",
"245 -122 OFFCURVE",
"244 -118 OFFCURVE",
"259 -118 CURVE SMOOTH",
"279 -118 OFFCURVE",
"307 -131 OFFCURVE",
"337 -152 CURVE SMOOTH",
"361 -169 OFFCURVE",
"374 -202 OFFCURVE",
"362 -218 CURVE SMOOTH",
"359 -222 OFFCURVE",
"358 -222 OFFCURVE",
"348 -222 CURVE SMOOTH",
"342 -222 OFFCURVE",
"330 -222 OFFCURVE",
"322 -221 CURVE SMOOTH"
);
},
{
closed = 1;
nodes = (
"220 -206 OFFCURVE",
"214 -204 OFFCURVE",
"211 -201 CURVE SMOOTH",
"208 -198 OFFCURVE",
"209 -195 OFFCURVE",
"214 -189 CURVE SMOOTH",
"221 -180 OFFCURVE",
"220 -175 OFFCURVE",
"209 -163 CURVE SMOOTH",
"199 -152 OFFCURVE",
"187 -144 OFFCURVE",
"169 -135 CURVE SMOOTH",
"154 -128 OFFCURVE",
"148 -121 OFFCURVE",
"159 -119 CURVE SMOOTH",
"167 -118 OFFCURVE",
"181 -121 OFFCURVE",
"187 -123 CURVE SMOOTH",
"217 -133 OFFCURVE",
"243 -143 OFFCURVE",
"255 -154 CURVE SMOOTH",
"267 -165 OFFCURVE",
"273 -177 OFFCURVE",
"273 -191 CURVE SMOOTH",
"273 -207 OFFCURVE",
"269 -210 OFFCURVE",
"252 -210 CURVE SMOOTH",
"245 -210 OFFCURVE",
"236 -209 OFFCURVE",
"231 -208 CURVE SMOOTH"
);
}
);
width = 600;
}
);
},
{
export = 0;
glyphname = ex;
lastChange = "2019-03-05 05:48:29 +0000";
layers = (
{
layerId = "6AE76F26-A731-4FB1-ABE3-4EB47684FF25";
paths = (
{
closed = 1;
nodes = (
"-1 -252 OFFCURVE",
"2 -242 CURVE SMOOTH",
"3 -239 OFFCURVE",
"24 -178 OFFCURVE",
"51 -107 CURVE SMOOTH",
"99 24 LINE",
"92 37 LINE SMOOTH",
"81 58 OFFCURVE",
"56 97 OFFCURVE",
"44 108 CURVE SMOOTH",
"30 121 OFFCURVE",
"20 129 OFFCURVE",
"10 130 CURVE SMOOTH",
"2 131 OFFCURVE",
"0 135 OFFCURVE",
"0 148 CURVE SMOOTH",
"0 176 OFFCURVE",
"23 198 OFFCURVE",
"48 195 CURVE SMOOTH",
"63 193 OFFCURVE",
"70 178 OFFCURVE",
"88 155 CURVE",
"122 116 OFFCURVE",
"129 104 OFFCURVE",
"139 126 CURVE SMOOTH",
"142 133 OFFCURVE",
"151 152 OFFCURVE",
"159 168 CURVE SMOOTH",
"174 198 OFFCURVE",
"187 218 OFFCURVE",
"194 222 CURVE",
"196 223 OFFCURVE",
"203 223 OFFCURVE",
"211 223 CURVE SMOOTH",
"220 223 OFFCURVE",
"222 221 OFFCURVE",
"226 217 CURVE SMOOTH",
"228 215 OFFCURVE",
"231 210 OFFCURVE",
"230 208 CURVE",
"228 205 OFFCURVE",
"215 189 OFFCURVE",
"208 179 CURVE SMOOTH",
"189 153 OFFCURVE",
"185 147 OFFCURVE",
"175 124 CURVE SMOOTH",
"156 82 OFFCURVE",
"153 69 OFFCURVE",
"170 35 CURVE SMOOTH",
"219 -65 OFFCURVE",
"251 -141 OFFCURVE",
"254 -190 CURVE SMOOTH",
"255 -210 OFFCURVE",
"253 -215 OFFCURVE",
"239 -223 CURVE SMOOTH",
"228 -229 OFFCURVE",
"219 -232 OFFCURVE",
"215 -226 CURVE SMOOTH",
"213 -223 OFFCURVE",
"202 -194 OFFCURVE",
"189 -159 CURVE SMOOTH",
"172 -116 OFFCURVE",
"127 -14 OFFCURVE",
"121 -14 CURVE SMOOTH",
"121 -14 OFFCURVE",
"102 -65 OFFCURVE",
"81 -128 CURVE SMOOTH",
"42 -243 LINE",
"40 -243 OFFCURVE",
"18 -245 OFFCURVE",
"12 -247 CURVE",
"8 -248 OFFCURVE"
);
}
